<svg width="17" height="17" viewBox="0 0 17 17" fill="none" xmlns="http://www.w3.org/2000/svg">
<path d="M8.5 16.1145C4.29959 16.1145 0.885422 12.7004 0.885422 8.49996C0.885422 4.29954 4.29959 0.885376 8.5 0.885376C12.7004 0.885376 16.1146 4.29954 16.1146 8.49996C16.1146 12.7004 12.7004 16.1145 8.5 16.1145ZM8.5 1.94788C4.8875 1.94788 1.94792 4.88746 1.94792 8.49996C1.94792 12.1125 4.8875 15.052 8.5 15.052C12.1125 15.052 15.0521 12.1125 15.0521 8.49996C15.0521 4.88746 12.1125 1.94788 8.5 1.94788Z" fill="#538CFF"/>
<path d="M11.1279 11.2837C11.0358 11.2837 10.9437 11.2625 10.8587 11.2058L8.66291 9.89541C8.11749 9.56958 7.71375 8.85416 7.71375 8.22375V5.31958C7.71375 5.02916 7.95458 4.78833 8.245 4.78833C8.53541 4.78833 8.77625 5.02916 8.77625 5.31958V8.22375C8.77625 8.47875 8.98874 8.85416 9.20833 8.98166L11.4042 10.2921C11.6592 10.4408 11.7371 10.7667 11.5883 11.0217C11.4821 11.1917 11.305 11.2837 11.1279 11.2837Z" fill="#538CFF"/>
</svg>
