<svg width="17" height="17" viewBox="0 0 17 17" fill="none" xmlns="http://www.w3.org/2000/svg">
<path d="M8.50001 10.0371C6.99126 10.0371 5.75876 8.81165 5.75876 7.29581C5.75876 5.77998 6.99126 4.56165 8.50001 4.56165C10.0088 4.56165 11.2413 5.78706 11.2413 7.3029C11.2413 8.81873 10.0088 10.0371 8.50001 10.0371ZM8.50001 5.62415C7.57918 5.62415 6.82126 6.37498 6.82126 7.3029C6.82126 8.23081 7.57209 8.98164 8.50001 8.98164C9.42793 8.98164 10.1788 8.23081 10.1788 7.3029C10.1788 6.37498 9.42084 5.62415 8.50001 5.62415Z" fill="#538CFF"/>
<path d="M8.5 16.1216C7.45167 16.1216 6.39625 15.725 5.57459 14.9387C3.485 12.927 1.17584 9.71829 2.04709 5.90038C2.83334 2.43663 5.85792 0.885376 8.5 0.885376C8.5 0.885376 8.5 0.885376 8.50709 0.885376C11.1492 0.885376 14.1738 2.43663 14.96 5.90746C15.8242 9.72538 13.515 12.927 11.4254 14.9387C10.6038 15.725 9.54834 16.1216 8.5 16.1216ZM8.5 1.94788C6.43875 1.94788 3.78959 3.04579 3.08834 6.13413C2.32334 9.47038 4.42 12.3462 6.31834 14.1666C7.54375 15.3495 9.46334 15.3495 10.6888 14.1666C12.58 12.3462 14.6767 9.47038 13.9258 6.13413C13.2175 3.04579 10.5613 1.94788 8.5 1.94788Z" fill="#538CFF"/>
</svg>
