<svg width="24" height="24" viewBox="0 0 24 24" fill="none" xmlns="http://www.w3.org/2000/svg">
<path d="M4 11H11V4H4V11ZM6 6H9V9H6V6ZM20 4H13V11H20V4ZM18 9H15V6H18V9ZM4 20H11V13H4V20ZM6 15H9V18H6V15ZM3 22H7V24H3C1.346 24 0 22.654 0 21V17H2V21C2 21.551 2.449 22 3 22ZM22 17H24V21C24 22.654 22.654 24 21 24H17V22H21C21.551 22 22 21.551 22 21V17ZM24 3V7H22V3C22 2.449 21.551 2 21 2H17V0H21C22.654 0 24 1.346 24 3ZM2 7H0V3C0 1.346 1.346 0 3 0H7V2H3C2.449 2 2 2.449 2 3V7ZM13 17H16V20H13V17ZM17 16V13H20V16H17ZM13 13H16V16H13V13Z" fill="#538CFF"/>
</svg>
