<svg xmlns="http://www.w3.org/2000/svg" style="display:none">
  <!-- Alerta / Peligro -->
  <symbol id="danger" viewBox="0 0 24 24" fill="none">
    <path d="M12 9V14" stroke="currentColor" stroke-width="1.5" stroke-linecap="round" stroke-linejoin="round"/>
    <path d="M12 21.41H5.93999C2.46999 21.41 1.01999 18.93 2.69999 15.9L5.81999 10.28L8.75999 5C10.54 1.79 13.46 1.79 15.24 5L18.18 10.29L21.3 15.91C22.98 18.94 21.52 21.42 18.06 21.42H12V21.41Z" stroke="currentColor" stroke-width="1.5" stroke-linecap="round" stroke-linejoin="round"/>
    <path d="M11.9945 17H12.0035" stroke="currentColor" stroke-width="2" stroke-linecap="round" stroke-linejoin="round"/>
  </symbol>

  <!-- Confirmación / Check cuadrado -->
  <symbol id="tick-square" viewBox="0 0 24 24" fill="none">
    <path d="M9 22H15C20 22 22 20 22 15V9C22 4 20 2 15 2H9C4 2 2 4 2 9V15C2 20 4 22 9 22Z" stroke="currentColor" stroke-width="1.5" stroke-linecap="round" stroke-linejoin="round"/>
    <path d="M7.75 12L10.58 14.83L16.25 9.17004" stroke="currentColor" stroke-width="1.5" stroke-linecap="round" stroke-linejoin="round"/>
  </symbol>

  <!-- Basura / Eliminar -->
  <symbol id="trash" viewBox="0 0 24 24" fill="none">
    <path d="M21 5.97998C17.67 5.64998 14.32 5.47998 10.98 5.47998C9 5.47998 7.02 5.57998 5.04 5.77998L3 5.97998" stroke="currentColor" stroke-width="1.5" stroke-linecap="round" stroke-linejoin="round"/>
    <path d="M8.5 4.97L8.72 3.66C8.88 2.71 9 2 10.69 2H13.31C15 2 15.13 2.75 15.28 3.67L15.5 4.97" stroke="currentColor" stroke-width="1.5" stroke-linecap="round" stroke-linejoin="round"/>
    <path d="M18.8499 9.14001L18.1999 19.21C18.0899 20.78 17.9999 22 15.2099 22H8.7899C5.9999 22 5.9099 20.78 5.7999 19.21L5.1499 9.14001" stroke="currentColor" stroke-width="1.5" stroke-linecap="round" stroke-linejoin="round"/>
    <path d="M10.3301 16.5H13.6601" stroke="currentColor" stroke-width="1.5" stroke-linecap="round" stroke-linejoin="round"/>
    <path d="M9.5 12.5H14.5" stroke="currentColor" stroke-width="1.5" stroke-linecap="round" stroke-linejoin="round"/>
  </symbol>

  <!-- Usuario / Perfil -->
  <symbol id="user" viewBox="0 0 24 24" fill="none">
    <path d="M18.14 21.62C17.26 21.88 16.22 22 15 22H8.99998C7.77998 22 6.73999 21.88 5.85999 21.62C6.07999 19.02 8.74998 16.97 12 16.97C15.25 16.97 17.92 19.02 18.14 21.62Z" stroke="currentColor" stroke-width="1.5" stroke-linecap="round" stroke-linejoin="round"/>
    <path d="M15 2H9C4 2 2 4 2 9V15C2 18.78 3.14 20.85 5.86 21.62C6.08 19.02 8.75 16.97 12 16.97C15.25 16.97 17.92 19.02 18.14 21.62C20.86 20.85 22 18.78 22 15V9C22 4 20 2 15 2ZM12 14.17C10.02 14.17 8.42 12.56 8.42 10.58C8.42 8.60002 10.02 7 12 7C13.98 7 15.58 8.60002 15.58 10.58C15.58 12.56 13.98 14.17 12 14.17Z" stroke="currentColor" stroke-width="1.5" stroke-linecap="round" stroke-linejoin="round"/>
  </symbol>

  <!-- Cerrar Sesión / Salir -->
  <symbol id="logout" viewBox="0 0 24 24" fill="none">
    <path d="M8.90002 7.55999C9.21002 3.95999 11.06 2.48999 15.11 2.48999H15.24C19.71 2.48999 21.5 4.27999 21.5 8.74999V15.27C21.5 19.74 19.71 21.53 15.24 21.53H15.11C11.09 21.53 9.24002 20.08 8.91002 16.54" stroke="currentColor" stroke-width="1.5" stroke-linecap="round" stroke-linejoin="round"/>
    <path d="M15 12H3.62" stroke="currentColor" stroke-width="1.5" stroke-linecap="round" stroke-linejoin="round"/>
    <path d="M5.85 8.65002L2.5 12L5.85 15.35" stroke="currentColor" stroke-width="1.5" stroke-linecap="round" stroke-linejoin="round"/>
  </symbol>

  <!-- Notificaciones / Campana -->
  <symbol id="notification" viewBox="0 0 24 24" fill="none">
    <path d="M12.0206 2.91016C8.71058 2.91016 6.02058 5.60016 6.02058 8.91016V11.8002C6.02058 12.4102 5.76058 13.3402 5.45058 13.8602L4.30058 15.7702C3.59058 16.9502 4.08058 18.2602 5.38058 18.7002C9.69058 20.1402 14.3406 20.1402 18.6506 18.7002C19.8606 18.3002 20.3906 16.8702 19.7306 15.7702L18.5806 13.8602C18.2806 13.3402 18.0206 12.4102 18.0206 11.8002V8.91016C18.0206 5.61016 15.3206 2.91016 12.0206 2.91016Z" stroke="currentColor" stroke-width="1.5" stroke-linecap="round"/>
    <path d="M13.8699 3.20043C13.5599 3.11043 13.2399 3.04043 12.9099 3.00043C11.9499 2.88043 11.0299 2.95043 10.1699 3.20043C10.4599 2.46043 11.1799 1.94043 12.0199 1.94043C12.8599 1.94043 13.5799 2.46043 13.8699 3.20043Z" stroke="currentColor" stroke-width="1.5" stroke-linecap="round" stroke-linejoin="round"/>
    <path d="M15.0195 19.0596C15.0195 20.7096 13.6695 22.0596 12.0195 22.0596C11.1995 22.0596 10.4395 21.7196 9.89953 21.1796C9.35953 20.6396 9.01953 19.8796 9.01953 19.0596" stroke="currentColor" stroke-width="1.5"/>
  </symbol>

  <!-- Filtro -->
  <symbol id="filter" viewBox="0 0 24 24" fill="none">
    <path d="M5.3999 2.09998H18.5999C19.6999 2.09998 20.5999 2.99998 20.5999 4.09998V6.29998C20.5999 7.09998 20.0999 8.09998 19.5999 8.59998L15.2999 12.4C14.6999 12.9 14.2999 13.9 14.2999 14.7V19C14.2999 19.6 13.8999 20.4 13.3999 20.7L11.9999 21.6C10.6999 22.4 8.8999 21.5 8.8999 19.9V14.6C8.8999 13.9 8.4999 13 8.0999 12.5L4.2999 8.49998C3.7999 7.99998 3.3999 7.09998 3.3999 6.49998V4.19998C3.3999 2.99998 4.2999 2.09998 5.3999 2.09998Z" stroke="currentColor" stroke-width="1.5" stroke-linecap="round" stroke-linejoin="round"/>
    <path d="M10.93 2.09998L6 9.99998" stroke="currentColor" stroke-width="1.5" stroke-linecap="round" stroke-linejoin="round"/>
  </symbol>

  <!-- Editar / Lápiz -->
  <symbol id="edit" viewBox="0 0 24 24" fill="none">
    <path d="M11 2H9C4 2 2 4 2 9V15C2 20 4 22 9 22H15C20 22 22 20 22 15V13" stroke="currentColor" stroke-width="1.5" stroke-linecap="round" stroke-linejoin="round"/>
    <path d="M16.0399 3.02001L8.15988 10.9C7.85988 11.2 7.55988 11.79 7.49988 12.22L7.06988 15.23C6.90988 16.32 7.67988 17.08 8.76988 16.93L11.7799 16.5C12.1999 16.44 12.7899 16.14 13.0999 15.84L20.9799 7.96001C22.3399 6.60001 22.9799 5.02001 20.9799 3.02001C18.9799 1.02001 17.3999 1.66001 16.0399 3.02001Z" stroke="currentColor" stroke-width="1.5" stroke-linecap="round" stroke-linejoin="round"/>
    <path d="M14.9102 4.14999C15.5802 6.53999 17.4502 8.40999 19.8502 9.08999" stroke="currentColor" stroke-width="1.5" stroke-linecap="round" stroke-linejoin="round"/>
  </symbol>

  <!-- Cerrar / Cancelar (Círculo) -->
  <symbol id="close-circle" viewBox="0 0 24 24" fill="none">
    <path d="M12 22C17.5 22 22 17.5 22 12C22 6.5 17.5 2 12 2C6.5 2 2 6.5 2 12C2 17.5 6.5 22 12 22Z" stroke="currentColor" stroke-width="1.5" stroke-linecap="round" stroke-linejoin="round"/>
    <path d="M9.16992 14.83L14.8299 9.17004" stroke="currentColor" stroke-width="1.5" stroke-linecap="round" stroke-linejoin="round"/>
    <path d="M14.8299 14.83L9.16992 9.17004" stroke="currentColor" stroke-width="1.5" stroke-linecap="round" stroke-linejoin="round"/>
  </symbol>

  <!-- Añadir / Más -->
  <symbol id="add" viewBox="0 0 24 24" fill="none">
    <path d="M6 12H18" stroke="currentColor" stroke-width="1.5" stroke-linecap="round" stroke-linejoin="round"/>
    <path d="M12 18V6" stroke="currentColor" stroke-width="1.5" stroke-linecap="round" stroke-linejoin="round"/>
  </symbol>

  <!-- Flecha Abajo -->
  <symbol id="arrow-down1" viewBox="0 0 24 24" fill="none">
    <path d="M19.92 8.94995L13.4 15.47C12.63 16.24 11.37 16.24 10.6 15.47L4.07996 8.94995" stroke="currentColor" stroke-width="1.5" stroke-linecap="round" stroke-linejoin="round"/>
  </symbol>

  <!-- Calendario (Genérico) -->
  <symbol id="calendar" viewBox="0 0 24 24" fill="none">
    <path d="M8 2V5" stroke="currentColor" stroke-width="1.5" stroke-linecap="round" stroke-linejoin="round"/>
    <path d="M16 2V5" stroke="currentColor" stroke-width="1.5" stroke-linecap="round" stroke-linejoin="round"/>
    <path d="M3.5 9.08997H20.5" stroke="currentColor" stroke-width="1.5" stroke-linecap="round" stroke-linejoin="round"/>
    <path d="M21 8.5V17C21 20 19.5 22 16 22H8C4.5 22 3 20 3 17V8.5C3 5.5 4.5 3.5 8 3.5H16C19.5 3.5 21 5.5 21 8.5Z" stroke="currentColor" stroke-width="1.5" stroke-linecap="round" stroke-linejoin="round"/>
    <path d="M11.9955 13.7H12.0045" stroke="currentColor" stroke-width="2" stroke-linecap="round" stroke-linejoin="round"/>
  </symbol>

  <!-- Documento / Texto -->
  <symbol id="document" viewBox="0 0 24 24" fill="none">
    <path d="M22 10V15C22 20 20 22 15 22H9C4 22 2 20 2 15V9C2 4 4 2 9 2H14" stroke="currentColor" stroke-width="1.5" stroke-linecap="round" stroke-linejoin="round"/>
    <path d="M22 10H18C15 10 14 9 14 6V2L22 10Z" stroke="currentColor" stroke-width="1.5" stroke-linecap="round" stroke-linejoin="round"/>
    <path d="M7 13H13" stroke="currentColor" stroke-width="1.5" stroke-linecap="round" stroke-linejoin="round"/>
    <path d="M7 17H11" stroke="currentColor" stroke-width="1.5" stroke-linecap="round" stroke-linejoin="round"/>
  </symbol>

  <!-- Título del Cupón / Ticket -->
  <symbol id="coupon-title" viewBox="0 0 24 24" fill="none">
    <path d="M12.5 15V18" stroke="currentColor" stroke-width="1.5" stroke-linecap="round" stroke-linejoin="round"/>
    <path d="M12.5 6V9" stroke="currentColor" stroke-width="1.5" stroke-linecap="round" stroke-linejoin="round"/>
    <path d="M12.5 10.5V13.5" stroke="currentColor" stroke-width="1.5" stroke-linecap="round" stroke-linejoin="round"/>
    <path d="M9 2H15C19 2 22 3 22 8V16C22 21 19 22 15 22H9C5 22 2 21 2 16V8C2 3 5 2 9 2Z" stroke="currentColor" stroke-width="1.5" stroke-linecap="round" stroke-linejoin="round"/>
  </symbol>

  <!-- Categoría / Etiquetas -->
  <symbol id="category" viewBox="0 0 24 24" fill="none">
    <path d="M15 22H9C4 22 2 20 2 15V9C2 4 4 2 9 2H15C20 2 22 4 22 9V15C22 20 20 22 15 22Z" stroke="currentColor" stroke-width="1.5" stroke-linecap="round" stroke-linejoin="round"/>
    <path d="M7 9.5H17" stroke="currentColor" stroke-width="1.5" stroke-linecap="round" stroke-linejoin="round"/>
    <path d="M7 14.5H12" stroke="currentColor" stroke-width="1.5" stroke-linecap="round" stroke-linejoin="round"/>
  </symbol>

  <!-- Estado / Check Circular -->
  <symbol id="status" viewBox="0 0 24 24" fill="none">
    <path d="M12 22C17.5228 22 22 17.5228 22 12C22 6.47715 17.5228 2 12 2C6.47715 2 2 6.47715 2 12C2 17.5228 6.47715 22 12 22Z" stroke="currentColor" stroke-width="1.5" stroke-linecap="round" stroke-linejoin="round"/>
    <path d="M7.75 12L10.58 14.83L16.25 9.17004" stroke="currentColor" stroke-width="1.5" stroke-linecap="round" stroke-linejoin="round"/>
  </symbol>

  <!-- Cantidad Disponible / Stock -->
  <symbol id="quantity" viewBox="0 0 24 24" fill="none">
    <path d="M22 7L12 2L2 7L12 12L22 7Z" stroke="currentColor" stroke-width="1.5" stroke-linecap="round" stroke-linejoin="round"/>
    <path d="M2 17L12 22L22 17" stroke="currentColor" stroke-width="1.5" stroke-linecap="round" stroke-linejoin="round"/>
    <path d="M2 12L12 17L22 12" stroke="currentColor" stroke-width="1.5" stroke-linecap="round" stroke-linejoin="round"/>
  </symbol>

  <!-- Fecha Inicio / Calendario Entrada -->
  <symbol id="date-start" viewBox="0 0 24 24" fill="none">
    <path d="M8 2V5" stroke="currentColor" stroke-width="1.5" stroke-linecap="round" stroke-linejoin="round"/>
    <path d="M16 2V5" stroke="currentColor" stroke-width="1.5" stroke-linecap="round" stroke-linejoin="round"/>
    <path d="M3 9H21" stroke="currentColor" stroke-width="1.5" stroke-linecap="round" stroke-linejoin="round"/>
    <path d="M21 13V17C21 20 19.5 22 16 22H8C4.5 22 3 20 3 17V8.5C3 5.5 4.5 3.5 8 3.5H16C19.5 3.5 21 5.5 21 8.5V10" stroke="currentColor" stroke-width="1.5" stroke-linecap="round" stroke-linejoin="round"/>
    <path d="M14.5 15.5L12 18L9.5 15.5" stroke="currentColor" stroke-width="1.5" stroke-linecap="round" stroke-linejoin="round"/>
  </symbol>

  <!-- Fecha Fin / Calendario Salida -->
  <symbol id="date-end" viewBox="0 0 24 24" fill="none">
    <path d="M8 2V5" stroke="currentColor" stroke-width="1.5" stroke-linecap="round" stroke-linejoin="round"/>
    <path d="M16 2V5" stroke="currentColor" stroke-width="1.5" stroke-linecap="round" stroke-linejoin="round"/>
    <path d="M3 9H21" stroke="currentColor" stroke-width="1.5" stroke-linecap="round" stroke-linejoin="round"/>
    <path d="M21 13V17C21 20 19.5 22 16 22H8C4.5 22 3 20 3 17V8.5C3 5.5 4.5 3.5 8 3.5H16C19.5 3.5 21 5.5 21 8.5V10" stroke="currentColor" stroke-width="1.5" stroke-linecap="round" stroke-linejoin="round"/>
    <path d="M12 13V18" stroke="currentColor" stroke-width="1.5" stroke-linecap="round" stroke-linejoin="round"/>
  </symbol>

  <!-- Términos y Condiciones / Legal -->
  <symbol id="terms" viewBox="0 0 24 24" fill="none">
    <path d="M12 22C12 22 20 18 20 12V5L12 2L4 5V12C4 18 12 22 12 22Z" stroke="currentColor" stroke-width="1.5" stroke-linecap="round" stroke-linejoin="round"/>
    <path d="M9 12L11 14L15 10" stroke="currentColor" stroke-width="1.5" stroke-linecap="round" stroke-linejoin="round"/>
  </symbol>

  <!-- Descripción / Texto Documento -->
  <symbol id="description-text" viewBox="0 0 24 24" fill="none">
    <path d="M22 10V15C22 20 20 22 15 22H9C4 22 2 20 2 15V9C2 4 4 2 9 2H14" stroke="currentColor" stroke-width="1.5" stroke-linecap="round" stroke-linejoin="round"/>
    <path d="M22 10H18C15 10 14 9 14 6V2L22 10Z" stroke="currentColor" stroke-width="1.5" stroke-linecap="round" stroke-linejoin="round"/>
    <path d="M7 13H13" stroke="currentColor" stroke-width="1.5" stroke-linecap="round" stroke-linejoin="round"/>
    <path d="M7 17H11" stroke="currentColor" stroke-width="1.5" stroke-linecap="round" stroke-linejoin="round"/>
  </symbol>

  <!-- Cupón Regalo -->
  <symbol id="coupon-gift" viewBox="0 0 24 24" fill="none">
    <path d="M11.55 10H6.45C4.65 10 4.25 10.9 4.02 12.01L3.2 15.93H14.8L13.98 12.01C13.75 10.9 13.35 10 11.55 10Z" stroke="currentColor" stroke-width="1.5" stroke-linecap="round" stroke-linejoin="round"/>
    <path d="M16.24 22.32C16.32 23.17 15.64 23.9 14.77 23.9H13.41C12.63 23.9 12.52 23.57 12.38 23.15L12.23 22.72C12.03 22.13 11.9 21.73 10.85 21.73H7.14C6.1 21.73 5.94 22.18 5.76 22.72L5.61 23.15C5.47 23.56 5.36 23.9 4.58 23.9H3.22C2.35 23.9 1.67 23.17 1.75 22.32L2.16 17.9C2.26 16.81 2.47 15.92 4.37 15.92H13.62C15.52 15.92 15.73 16.81 15.83 17.9L16.24 22.32Z" stroke="currentColor" stroke-width="1.5" stroke-linecap="round" stroke-linejoin="round"/>
    <path d="M9 25V26" stroke="currentColor" stroke-width="1.5" stroke-linecap="round" stroke-linejoin="round"/>
  </symbol>

  <!-- Categoría Tienda / Comercio -->
  <symbol id="category-shop" viewBox="0 0 24 24" fill="none">
    <path d="M18.51 2.83H11.49C9 2.83 8.45 4.07 8.13 5.59L7 11H23L21.87 5.59C21.55 4.07 21 2.83 18.51 2.83Z" stroke="currentColor" stroke-width="1.5" stroke-linecap="round" stroke-linejoin="round"/>
    <path d="M24.99 19.82C25.1 20.99 24.16 22 22.96 22H21.08C20 22 19.85 21.54 19.66 20.97L19.46 20.37C19.18 19.55 19 19 17.56 19H12.44C11 19 10.79 19.62 10.54 20.37L10.34 20.97C10.15 21.54 10 22 8.92 22H7.04C5.84 22 4.9 20.99 5.01 19.82L5.57 13.73C5.71 12.23 6 11 8.62 11H21.38C24 11 24.29 12.23 24.43 13.73L24.99 19.82Z" stroke="currentColor" stroke-width="1.5" stroke-linecap="round" stroke-linejoin="round"/>
  </symbol>

  <!-- Estado / Medalla de Logro -->
  <symbol id="status-badge" viewBox="0 0 24 24" fill="none">
    <path d="M12.03 21.69L14.36 19.73C14.71 19.43 15.29 19.43 15.64 19.73L17.97 21.69C18.51 21.96 19.17 21.69 19.37 21.11L19.81 19.78C19.92 19.46 19.81 18.99 19.57 18.75L17.3 16.47C17.13 16.31 17 15.99 17 15.76V12.91C17 12.49 17.31 12.29 17.7 12.45L22.61 14.57C23.38 14.9 24.01 14.49 24.01 13.65V12.36C24.01 11.69 23.51 10.92 22.89 10.66L17.3 8.25C17.14 8.18 17 7.97 17 7.79V4.79C17 3.85 16.31 2.74 15.47 2.31C15.17 2.16 14.82 2.16 14.52 2.31C13.68 2.74 12.99 3.86 12.99 4.8V7.8C12.99 7.98 12.85 8.19 12.69 8.26L7.11 10.67C6.49 10.92 5.99 11.69 5.99 12.36V13.65C5.99 14.49 6.62 14.9 6.739 14.57L12.3 12.45C12.68 12.28 13 12.49 13 12.91V15.76C13 15.99 12.87 16.31 12.71 16.47L10.44 18.75C10.2 18.99 10.09 19.45 10.2 19.78L10.64 21.11C10.82 21.69 11.48 21.97 12.03 21.69Z" stroke="currentColor" stroke-width="1.5" stroke-linecap="round" stroke-linejoin="round"/>
  </symbol>

  <!-- Confirmación / Círculo Check -->
  <symbol id="status-check" viewBox="0 0 24 24" fill="none">
    <path d="M12 22C17.5 22 22 17.5 22 12C22 6.5 17.5 2 12 2C6.5 2 2 6.5 2 12C2 17.5 6.5 22 12 22Z" stroke="currentColor" stroke-width="1.5" stroke-linecap="round" stroke-linejoin="round"/>
    <path d="M7.75 12L10.58 14.83L16.25 9.17" stroke="currentColor" stroke-width="1.5" stroke-linecap="round" stroke-linejoin="round"/>
  </symbol>

  <!-- Menú / Hamburguesa -->
  <symbol id="menu" viewBox="0 0 24 24" fill="none">
    <path d="M3 7H21" stroke="currentColor" stroke-width="1.5" stroke-linecap="round" stroke-linejoin="round"/>
    <path d="M3 12H21" stroke="currentColor" stroke-width="1.5" stroke-linecap="round" stroke-linejoin="round"/>
    <path d="M3 17H21" stroke="currentColor" stroke-width="1.5" stroke-linecap="round" stroke-linejoin="round"/>
  </symbol>

  <!-- Búsqueda / Lupa -->
  <symbol id="search" viewBox="0 0 24 24" fill="none">
    <path d="M11.5 21C16.7467 21 21 16.7467 21 11.5C21 6.25329 16.7467 2 11.5 2C6.25329 2 2 6.25329 2 11.5C2 16.7467 6.25329 21 11.5 21Z" stroke="currentColor" stroke-width="1.5" stroke-linecap="round" stroke-linejoin="round"/>
    <path d="M22 22L20 20" stroke="currentColor" stroke-width="1.5" stroke-linecap="round" stroke-linejoin="round"/>
  </symbol>

  <!-- Aplicaciones / Cuadrícula -->
  <symbol id="apps" viewBox="0 0 24 24" fill="none">
    <path d="M5 10H7C9 10 10 9 10 7V5C10 3 9 2 7 2H5C3 2 2 3 2 5V7C2 9 3 10 5 10Z" stroke="currentColor" stroke-width="1.5" stroke-linecap="round" stroke-linejoin="round"/>
    <path d="M17 10H19C21 10 22 9 22 7V5C22 3 21 2 19 2H17C15 2 14 3 14 5V7C14 9 15 10 17 10Z" stroke="currentColor" stroke-width="1.5" stroke-linecap="round" stroke-linejoin="round"/>
    <path d="M17 22H19C21 22 22 21 22 19V17C22 15 21 14 19 14H17C15 14 14 15 14 17V19C14 21 15 22 17 22Z" stroke="currentColor" stroke-width="1.5" stroke-linecap="round" stroke-linejoin="round"/>
    <path d="M5 22H7C9 22 10 21 10 19V17C10 15 9 14 7 14H5C3 14 2 15 2 17V19C2 21 3 22 5 22Z" stroke="currentColor" stroke-width="1.5" stroke-linecap="round" stroke-linejoin="round"/>
  </symbol>

  <!-- Visualizar / Ojo -->
  <symbol id="eye" viewBox="0 0 24 24" fill="none">
    <path d="M15.58 12C15.58 13.98 13.98 15.58 12 15.58C10.02 15.58 8.42004 13.98 8.42004 12C8.42004 10.02 10.02 8.42004 12 8.42004C13.98 8.42004 15.58 10.02 15.58 12Z" stroke="currentColor" stroke-width="1.5" stroke-linecap="round" stroke-linejoin="round"/>
    <path d="M12 20.27C15.53 20.27 18.82 18.19 21.11 14.59C22.01 13.18 22.01 10.81 21.11 9.39997C18.82 5.79997 15.53 3.71997 12 3.71997C8.46997 3.71997 5.17997 5.79997 2.88997 9.39997C1.98997 10.81 1.98997 13.18 2.88997 14.59C5.17997 18.19 8.46997 20.27 12 20.27Z" stroke="currentColor" stroke-width="1.5" stroke-linecap="round" stroke-linejoin="round"/>
  </symbol>

  <!-- Edificios / Dispositivo o Sede -->
  <symbol id="card-device" viewBox="0 0 24 24" fill="none">
    <path d="M13 22H5C3 22 2 21 2 19V11C2 9 3 8 5 8H10V19C10 21 11 22 13 22Z" stroke="currentColor" stroke-width="1.5" stroke-linecap="round" stroke-linejoin="round"/>
    <path d="M10.11 4C10.03 4.3 10 4.63 10 5V8H5V6C5 4.9 5.9 4 7 4H10.11Z" stroke="currentColor" stroke-width="1.5" stroke-linecap="round" stroke-linejoin="round"/>
    <path d="M14 8V13" stroke="currentColor" stroke-width="1.5" stroke-linecap="round" stroke-linejoin="round"/>
    <path d="M18 8V13" stroke="currentColor" stroke-width="1.5" stroke-linecap="round" stroke-linejoin="round"/>
    <path d="M17 17H15C14.45 17 14 17.45 14 18V22H18V18C18 17.45 17.55 17 17 17Z" stroke="currentColor" stroke-width="1.5" stroke-linecap="round" stroke-linejoin="round"/>
    <path d="M6 13V17" stroke="currentColor" stroke-width="1.5" stroke-linecap="round" stroke-linejoin="round"/>
    <path d="M10 19V5C10 3 11 2 13 2H19C21 2 22 3 22 5V19C22 21 21 22 19 22H13C11 22 10 21 10 19Z" stroke="currentColor" stroke-width="1.5" stroke-linecap="round" stroke-linejoin="round"/>
  </symbol>

  <!-- Ordenar / Arriba y Abajo -->
  <symbol id="arrow-up-down" viewBox="0 0 24 24" fill="none">
    <path d="M10.45 6.71997L6.72998 3L3.01001 6.71997" stroke="currentColor" stroke-width="1.5" stroke-linecap="round" stroke-linejoin="round"/>
    <path d="M6.72998 21V3" stroke="currentColor" stroke-width="1.5" stroke-linecap="round" stroke-linejoin="round"/>
    <path d="M13.55 17.28L17.2701 21L20.9901 17.28" stroke="currentColor" stroke-width="1.5" stroke-linecap="round" stroke-linejoin="round"/>
    <path d="M17.27 3V21" stroke="currentColor" stroke-width="1.5" stroke-linecap="round" stroke-linejoin="round"/>
  </symbol>

  <!-- Buscar en Documento -->
  <symbol id="document-search" viewBox="0 0 24 24" fill="none">
    <path d="M20.5 11.3V7.04001C20.5 3.01001 19.56 2 15.78 2H8.22C4.44 2 3.5 3.01001 3.5 7.04001V18.3C3.5 20.96 4.96001 21.59 6.73001 19.69L6.73999 19.68C7.55999 18.81 8.80999 18.88 9.51999 19.83L10.53 21.18" stroke="currentColor" stroke-width="1.5" stroke-linecap="round" stroke-linejoin="round"/>
    <path d="M18.2 21.4C19.9673 21.4 21.4 19.9673 21.4 18.2C21.4 16.4327 19.9673 15 18.2 15C16.4327 15 15 16.4327 15 18.2C15 19.9673 16.4327 21.4 18.2 21.4Z" stroke="currentColor" stroke-width="1.5" stroke-linecap="round" stroke-linejoin="round"/>
    <path d="M22 22L21 21" stroke="currentColor" stroke-width="1.5" stroke-linecap="round" stroke-linejoin="round"/>
    <path d="M8 7H16" stroke="currentColor" stroke-width="1.5" stroke-linecap="round" stroke-linejoin="round"/>
    <path d="M9 11H15" stroke="currentColor" stroke-width="1.5" stroke-linecap="round" stroke-linejoin="round"/>
  </symbol>

  <!-- Estadísticas / Gráfica -->
  <symbol id="statistics" viewBox="0 0 24 24" fill="none">
    <path d="M2 2V19C2 20.66 3.34 22 5 22H22" stroke="currentColor" stroke-width="1.5" stroke-linecap="round" stroke-linejoin="round"/>
    <path d="M5 17L9.59 11.64C10.35 10.76 11.7 10.7 12.52 11.53L13.47 12.48C14.29 13.3 15.64 13.25 16.4 12.37L21 7" stroke="currentColor" stroke-width="1.5" stroke-linecap="round" stroke-linejoin="round"/>
  </symbol>

  <!-- Gestión de Cupones -->
  <symbol id="coupon-manage" viewBox="0 0 24 24" fill="none">
    <path d="M19.5 12.5C19.5 11.12 20.62 10 22 10V9C22 5 21 4 17 4H7C3 4 2 5 2 9V9.5C3.38 9.5 4.5 10.62 4.5 12C4.5 13.38 3.38 14.5 2 14.5V15C2 19 3 20 7 20H17C21 20 22 19 22 15C20.62 15 19.5 13.88 19.5 12.5Z" stroke="currentColor" stroke-width="1.5" stroke-linecap="round" stroke-linejoin="round"/>
    <path d="M10 4L10 20" stroke="currentColor" stroke-width="1.5" stroke-linecap="round" stroke-linejoin="round" stroke-dasharray="5 5"/>
  </symbol>

  <!-- Canje de Cupones -->
  <symbol id="coupon-exchange" viewBox="0 0 24 24" fill="none">
    <path d="M18.91 14.6925C18.91 15.9825 19.97 17.0325 21.26 17.0325C21.26 20.7825 20.32 21.7225 16.57 21.7225H7.19C3.44 21.7225 2.5 20.7825 2.5 17.0325V16.5725C3.79 16.5725 4.85 15.5125 4.85 14.2225C4.85 12.9325 3.79 11.8725 2.5 11.8725V11.4125C2.51 7.66247 3.44 6.72247 7.19 6.72247H16.56C20.31 6.72247 21.25 7.66247 21.25 11.4125V12.3525C19.96 12.3525 18.91 13.3925 18.91 14.6925Z" stroke="currentColor" stroke-width="1.5" stroke-linecap="round" stroke-linejoin="round"/>
    <path d="M16.2111 6.7225H7.12109L10.0511 3.7925C12.4411 1.4025 13.6411 1.4025 16.0311 3.7925L16.6311 4.3925C16.0011 5.0225 15.8511 5.9525 16.2111 6.7225Z" stroke="currentColor" stroke-width="1.5" stroke-linecap="round" stroke-linejoin="round"/>
    <path d="M9.87891 6.72266L9.87891 21.7227" stroke="currentColor" stroke-width="1.5" stroke-linecap="round" stroke-linejoin="round" stroke-dasharray="5 5"/>
  </symbol>

  <!-- Documento con Check / Confirmado -->
  <symbol id="document-check" viewBox="0 0 24 24" fill="none">
    <path d="M2 2V19C2 20.66 3.34 22 5 22H22" stroke="currentColor" stroke-width="1.5" stroke-linecap="round" stroke-linejoin="round"/>
    <path d="M5 17L9.59 11.64C10.35 10.76 11.7 10.7 12.52 11.53L13.47 12.48C14.29 13.3 15.64 13.25 16.4 12.37L21 7" stroke="currentColor" stroke-width="1.5" stroke-linecap="round" stroke-linejoin="round"/>
  </symbol>

  <!-- Chat de Documento / Mensajes -->
  <symbol id="document-chat" viewBox="0 0 24 24" fill="none">
    <path d="M22 6.25V11.35C22 12.62 21.58 13.69 20.83 14.43C20.09 15.18 19.02 15.6 17.75 15.6V17.41C17.75 18.09 16.99 18.5 16.43 18.12L15.46 17.48C15.55 17.17 15.59 16.83 15.59 16.47V12.4C15.59 10.36 14.23 9 12.19 9H5.39999C5.25999 9 5.13 9.01002 5 9.02002V6.25C5 3.7 6.7 2 9.25 2H17.75C20.3 2 22 3.7 22 6.25Z" stroke="currentColor" stroke-width="1.5" stroke-linecap="round" stroke-linejoin="round"/>
    <path d="M15.59 12.4V16.47C15.59 16.83 15.55 17.17 15.46 17.48C15.09 18.95 13.87 19.87 12.19 19.87H9.47L6.45 21.88C6 22.19 5.39999 21.86 5.39999 21.32V19.87C4.37999 19.87 3.53 19.53 2.94 18.94C2.34 18.34 2 17.49 2 16.47V12.4C2 10.5 3.18 9.19002 5 9.02002C5.13 9.01002 5.25999 9 5.39999 9H12.19C14.23 9 15.59 10.36 15.59 12.4Z" stroke="currentColor" stroke-width="1.5" stroke-linecap="round" stroke-linejoin="round"/>
  </symbol>

  <!-- Escanear QR / Cámara -->
  <symbol id="scan-qr" viewBox="0 0 24 24" fill="none">
    <path d="M6.75992 22H17.2399C19.9999 22 21.0999 20.31 21.2299 18.25L21.7499 9.99C21.8899 7.83 20.1699 6 17.9999 6C17.3899 6 16.8299 5.65 16.5499 5.11L15.8299 3.66C15.3699 2.75 14.1699 2 13.1499 2H10.8599C9.82992 2 8.62992 2.75 8.16992 3.66L7.44992 5.11C7.16992 5.65 6.60992 6 5.99992 6C3.82992 6 2.10992 7.83 2.24992 9.99L2.76992 18.25C2.88992 20.31 3.99992 22 6.75992 22Z" stroke="currentColor" stroke-width="1.5" stroke-linecap="round" stroke-linejoin="round"/>
    <path d="M10.5 8H13.5" stroke="currentColor" stroke-width="1.5" stroke-linecap="round" stroke-linejoin="round"/>
    <path d="M12 18C13.79 18 15.25 16.54 15.25 14.75C15.25 12.96 13.79 11.5 12 11.5C10.21 11.5 8.75 12.96 8.75 14.75C8.75 16.54 10.21 18 12 18Z" stroke="currentColor" stroke-width="1.5" stroke-linecap="round" stroke-linejoin="round"/>
  </symbol>

  <!-- Alerta / Exclamación Hexagonal -->
  <symbol id="alert-hexagon" viewBox="0 0 32 32" fill="none">
    <path d="M16 10.333V17.333" stroke="currentColor" stroke-width="1.5" stroke-linecap="round" stroke-linejoin="round"/>
    <path d="M28.1067 11.4404V20.5603C28.1067 22.0537 27.3067 23.4404 26.0134 24.2004L18.0934 28.7737C16.8 29.5204 15.2 29.5204 13.8934 28.7737L5.97335 24.2004C4.68001 23.4537 3.88 22.067 3.88 20.5603V11.4404C3.88 9.94704 4.68001 8.56032 5.97335 7.80032L13.8934 3.22699C15.1867 2.48033 16.7867 2.48033 18.0934 3.22699L26.0134 7.80032C27.3067 8.56032 28.1067 9.9337 28.1067 11.4404Z" stroke="currentColor" stroke-width="1.5" stroke-linecap="round" stroke-linejoin="round"/>
    <path d="M16 21.5996V21.7329" stroke="currentColor" stroke-width="2" stroke-linecap="round" stroke-linejoin="round"/>
  </symbol>

  <!-- Confirmación / Círculo con Check (Estilo Minimalista) -->
  <symbol id="check-circle" viewBox="0 0 24 24" fill="none">
    <circle cx="12" cy="12" r="9" stroke="currentColor" stroke-width="1.5" stroke-linecap="round" stroke-linejoin="round"/>
    <path d="M8 12L10.5 14.5L16 9" stroke="currentColor" stroke-width="1.5" stroke-linecap="round" stroke-linejoin="round"/>
  </symbol>

  <!-- Carga / Refrescar / Actualizar -->
  <symbol id="loading" viewBox="0 0 24 24" fill="none">
    <path d="M21 12a9 9 0 11-9-9c2.52 0 4.93 1 6.74 2.74L21 8M21 3V8H16" stroke="currentColor" stroke-width="1.5" stroke-linecap="round" stroke-linejoin="round"/>
  </symbol>

  <!-- Escoba / Broom -->
  <symbol id="broom" viewBox="0 0 24 24" fill="none">
    <path d="M9.86982 5.66998L6.44982 7.74999L4.88982 5.19C4.31982 4.25 4.61982 3.01 5.55982 2.44C6.49982 1.87 7.73982 2.16998 8.30982 3.10998L9.86982 5.66998Z" stroke="currentColor" stroke-width="1.5" stroke-linecap="round" stroke-linejoin="round"/>
    <path d="M11.8201 9.15997L8.66012 11.08C6.82012 12.2 6.26011 14.46 7.15011 16.26L9.20011 20.44C9.86011 21.79 11.4601 22.26 12.7401 21.47L19.1701 17.56C20.4601 16.78 20.7701 15.15 19.8801 13.94L17.1101 10.2C15.9101 8.58001 13.6601 8.03997 11.8201 9.15997Z" stroke="currentColor" stroke-width="1.5" stroke-linecap="round" stroke-linejoin="round"/>
    <path d="M10.7564 5.09791L5.63184 8.21851L7.71224 11.6349L12.8368 8.51431L10.7564 5.09791Z" stroke="currentColor" stroke-width="1.5" stroke-linecap="round" stroke-linejoin="round"/>
    <path d="M14.3101 16.8101L15.9601 19.5201" stroke="currentColor" stroke-width="1.5" stroke-linecap="round" stroke-linejoin="round"/>
    <path d="M11.75 18.37L13.4 21.08" stroke="currentColor" stroke-width="1.5" stroke-linecap="round" stroke-linejoin="round"/>
    <path d="M16.8701 15.25L18.5201 17.96" stroke="currentColor" stroke-width="1.5" stroke-linecap="round" stroke-linejoin="round"/>
  </symbol>

  <!-- Coupon 1 / Ticket -->
  <symbol id="coupon1" viewBox="0 0 24 24" fill="none">
    <path d="M18.91 14.6925C18.91 15.9825 19.97 17.0325 21.26 17.0325C21.26 20.7825 20.32 21.7225 16.57 21.7225H7.19C3.44 21.7225 2.5 20.7825 2.5 17.0325V16.5725C3.79 16.5725 4.85 15.5125 4.85 14.2225C4.85 12.9325 3.79 11.8725 2.5 11.8725V11.4125C2.51 7.66247 3.44 6.72247 7.19 6.72247H16.56C20.31 6.72247 21.25 7.66247 21.25 11.4125V12.3525C19.96 12.3525 18.91 13.3925 18.91 14.6925Z" stroke="currentColor" stroke-width="1.5" stroke-linecap="round" stroke-linejoin="round"/>
    <path d="M9.87891 6.72266L9.87891 21.7227" stroke="currentColor" stroke-width="1.5" stroke-linecap="round" stroke-linejoin="round" stroke-dasharray="5 5"/>
    <path d="M14.7 10.7L12.9 12.5L11.7 11.3" stroke="currentColor" stroke-width="1.5" stroke-linecap="round" stroke-linejoin="round"/>
  </symbol>

  <!-- SMS Tracking -->
  <symbol id="sms-tracking" viewBox="0 0 24 24" fill="none">
    <path d="M2 8.5C2 5 4 3.5 7 3.5H17C20 3.5 22 5 22 8.5V15.5C22 19 20 20.5 17 20.5H7" stroke="currentColor" stroke-width="1.5" stroke-miterlimit="10" stroke-linecap="round" stroke-linejoin="round"/>
    <path d="M17 9L13.87 11.5C12.84 12.32 11.15 12.32 10.12 11.5L7 9" stroke="currentColor" stroke-width="1.5" stroke-miterlimit="10" stroke-linecap="round" stroke-linejoin="round"/>
    <path d="M2 16.5H8" stroke="currentColor" stroke-width="1.5" stroke-miterlimit="10" stroke-linecap="round" stroke-linejoin="round"/>
    <path d="M2 12.5H5" stroke="currentColor" stroke-width="1.5" stroke-miterlimit="10" stroke-linecap="round" stroke-linejoin="round"/>
  </symbol>

  <!-- Ticket Money -->
  <symbol id="ticket-money" viewBox="0 0 24 24" fill="none">
    <path d="M19.5 12.5C19.5 11.12 20.62 10 22 10V9C22 5 21 4 17 4H7C3 4 2 5 2 9V9.5C3.38 9.5 4.5 10.62 4.5 12C4.5 13.38 3.38 14.5 2 14.5V15C2 19 3 20 7 20H17C21 20 22 19 22 15C20.62 15 19.5 13.88 19.5 12.5Z" stroke="currentColor" stroke-width="1.5" stroke-linecap="round" stroke-linejoin="round"/>
    <path d="M10 4L10 20" stroke="currentColor" stroke-width="1.5" stroke-linecap="round" stroke-linejoin="round" stroke-dasharray="5 5"/>
  </symbol>
</svg>
