<svg xmlns="http://www.w3.org/2000/svg" style="display:none">
  <!-- Alerta / Peligro -->
  <symbol id="danger" viewBox="0 0 24 24" fill="none">
    <path d="M12 9V14" stroke="currentColor" stroke-width="1.5" stroke-linecap="round" stroke-linejoin="round"/>
    <path d="M12 21.41H5.93999C2.46999 21.41 1.01999 18.93 2.69999 15.9L5.81999 10.28L8.75999 5C10.54 1.79 13.46 1.79 15.24 5L18.18 10.29L21.3 15.91C22.98 18.94 21.52 21.42 18.06 21.42H12V21.41Z" stroke="currentColor" stroke-width="1.5" stroke-linecap="round" stroke-linejoin="round"/>
    <path d="M11.9945 17H12.0035" stroke="currentColor" stroke-width="2" stroke-linecap="round" stroke-linejoin="round"/>
  </symbol>

  <!-- Confirmación / Check cuadrado -->
  <symbol id="tick-square" viewBox="0 0 24 24" fill="none">
    <path d="M9 22H15C20 22 22 20 22 15V9C22 4 20 2 15 2H9C4 2 2 4 2 9V15C2 20 4 22 9 22Z" stroke="currentColor" stroke-width="1.5" stroke-linecap="round" stroke-linejoin="round"/>
    <path d="M7.75 12L10.58 14.83L16.25 9.17004" stroke="currentColor" stroke-width="1.5" stroke-linecap="round" stroke-linejoin="round"/>
  </symbol>

  <!-- Basura / Eliminar -->
  <symbol id="trash" viewBox="0 0 24 24" fill="none">
    <path d="M21 5.97998C17.67 5.64998 14.32 5.47998 10.98 5.47998C9 5.47998 7.02 5.57998 5.04 5.77998L3 5.97998" stroke="currentColor" stroke-width="1.5" stroke-linecap="round" stroke-linejoin="round"/>
    <path d="M8.5 4.97L8.72 3.66C8.88 2.71 9 2 10.69 2H13.31C15 2 15.13 2.75 15.28 3.67L15.5 4.97" stroke="currentColor" stroke-width="1.5" stroke-linecap="round" stroke-linejoin="round"/>
    <path d="M18.8499 9.14001L18.1999 19.21C18.0899 20.78 17.9999 22 15.2099 22H8.7899C5.9999 22 5.9099 20.78 5.7999 19.21L5.1499 9.14001" stroke="currentColor" stroke-width="1.5" stroke-linecap="round" stroke-linejoin="round"/>
    <path d="M10.3301 16.5H13.6601" stroke="currentColor" stroke-width="1.5" stroke-linecap="round" stroke-linejoin="round"/>
    <path d="M9.5 12.5H14.5" stroke="currentColor" stroke-width="1.5" stroke-linecap="round" stroke-linejoin="round"/>
  </symbol>

  <!-- Usuario / Perfil -->
  <symbol id="user" viewBox="0 0 24 24" fill="none">
    <path d="M18.14 21.62C17.26 21.88 16.22 22 15 22H8.99998C7.77998 22 6.73999 21.88 5.85999 21.62C6.07999 19.02 8.74998 16.97 12 16.97C15.25 16.97 17.92 19.02 18.14 21.62Z" stroke="currentColor" stroke-width="1.5" stroke-linecap="round" stroke-linejoin="round"/>
    <path d="M15 2H9C4 2 2 4 2 9V15C2 18.78 3.14 20.85 5.86 21.62C6.08 19.02 8.75 16.97 12 16.97C15.25 16.97 17.92 19.02 18.14 21.62C20.86 20.85 22 18.78 22 15V9C22 4 20 2 15 2ZM12 14.17C10.02 14.17 8.42 12.56 8.42 10.58C8.42 8.60002 10.02 7 12 7C13.98 7 15.58 8.60002 15.58 10.58C15.58 12.56 13.98 14.17 12 14.17Z" stroke="currentColor" stroke-width="1.5" stroke-linecap="round" stroke-linejoin="round"/>
  </symbol>

  <!-- Cerrar Sesión / Salir -->
  <symbol id="logout" viewBox="0 0 24 24" fill="none">
    <path d="M8.90002 7.55999C9.21002 3.95999 11.06 2.48999 15.11 2.48999H15.24C19.71 2.48999 21.5 4.27999 21.5 8.74999V15.27C21.5 19.74 19.71 21.53 15.24 21.53H15.11C11.09 21.53 9.24002 20.08 8.91002 16.54" stroke="currentColor" stroke-width="1.5" stroke-linecap="round" stroke-linejoin="round"/>
    <path d="M15 12H3.62" stroke="currentColor" stroke-width="1.5" stroke-linecap="round" stroke-linejoin="round"/>
    <path d="M5.85 8.65002L2.5 12L5.85 15.35" stroke="currentColor" stroke-width="1.5" stroke-linecap="round" stroke-linejoin="round"/>
  </symbol>

  <!-- Notificaciones / Campana -->
  <symbol id="notification" viewBox="0 0 24 24" fill="none">
    <path d="M12.0206 2.91016C8.71058 2.91016 6.02058 5.60016 6.02058 8.91016V11.8002C6.02058 12.4102 5.76058 13.3402 5.45058 13.8602L4.30058 15.7702C3.59058 16.9502 4.08058 18.2602 5.38058 18.7002C9.69058 20.1402 14.3406 20.1402 18.6506 18.7002C19.8606 18.3002 20.3906 16.8702 19.7306 15.7702L18.5806 13.8602C18.2806 13.3402 18.0206 12.4102 18.0206 11.8002V8.91016C18.0206 5.61016 15.3206 2.91016 12.0206 2.91016Z" stroke="currentColor" stroke-width="1.5" stroke-linecap="round"/>
    <path d="M13.8699 3.20043C13.5599 3.11043 13.2399 3.04043 12.9099 3.00043C11.9499 2.88043 11.0299 2.95043 10.1699 3.20043C10.4599 2.46043 11.1799 1.94043 12.0199 1.94043C12.8599 1.94043 13.5799 2.46043 13.8699 3.20043Z" stroke="currentColor" stroke-width="1.5" stroke-linecap="round" stroke-linejoin="round"/>
    <path d="M15.0195 19.0596C15.0195 20.7096 13.6695 22.0596 12.0195 22.0596C11.1995 22.0596 10.4395 21.7196 9.89953 21.1796C9.35953 20.6396 9.01953 19.8796 9.01953 19.0596" stroke="currentColor" stroke-width="1.5"/>
  </symbol>

  <!-- Filtro -->
  <symbol id="filter" viewBox="0 0 24 24" fill="none">
    <path d="M5.3999 2.09998H18.5999C19.6999 2.09998 20.5999 2.99998 20.5999 4.09998V6.29998C20.5999 7.09998 20.0999 8.09998 19.5999 8.59998L15.2999 12.4C14.6999 12.9 14.2999 13.9 14.2999 14.7V19C14.2999 19.6 13.8999 20.4 13.3999 20.7L11.9999 21.6C10.6999 22.4 8.8999 21.5 8.8999 19.9V14.6C8.8999 13.9 8.4999 13 8.0999 12.5L4.2999 8.49998C3.7999 7.99998 3.3999 7.09998 3.3999 6.49998V4.19998C3.3999 2.99998 4.2999 2.09998 5.3999 2.09998Z" stroke="currentColor" stroke-width="1.5" stroke-linecap="round" stroke-linejoin="round"/>
    <path d="M10.93 2.09998L6 9.99998" stroke="currentColor" stroke-width="1.5" stroke-linecap="round" stroke-linejoin="round"/>
  </symbol>

  <!-- Editar / Lápiz -->
  <symbol id="edit" viewBox="0 0 24 24" fill="none">
    <path d="M11 2H9C4 2 2 4 2 9V15C2 20 4 22 9 22H15C20 22 22 20 22 15V13" stroke="currentColor" stroke-width="1.5" stroke-linecap="round" stroke-linejoin="round"/>
    <path d="M16.0399 3.02001L8.15988 10.9C7.85988 11.2 7.55988 11.79 7.49988 12.22L7.06988 15.23C6.90988 16.32 7.67988 17.08 8.76988 16.93L11.7799 16.5C12.1999 16.44 12.7899 16.14 13.0999 15.84L20.9799 7.96001C22.3399 6.60001 22.9799 5.02001 20.9799 3.02001C18.9799 1.02001 17.3999 1.66001 16.0399 3.02001Z" stroke="currentColor" stroke-width="1.5" stroke-linecap="round" stroke-linejoin="round"/>
    <path d="M14.9102 4.14999C15.5802 6.53999 17.4502 8.40999 19.8502 9.08999" stroke="currentColor" stroke-width="1.5" stroke-linecap="round" stroke-linejoin="round"/>
  </symbol>

  <!-- Cerrar / Cancelar (Círculo) -->
  <symbol id="close-circle" viewBox="0 0 24 24" fill="none">
    <path d="M12 22C17.5 22 22 17.5 22 12C22 6.5 17.5 2 12 2C6.5 2 2 6.5 2 12C2 17.5 6.5 22 12 22Z" stroke="currentColor" stroke-width="1.5" stroke-linecap="round" stroke-linejoin="round"/>
    <path d="M9.16992 14.83L14.8299 9.17004" stroke="currentColor" stroke-width="1.5" stroke-linecap="round" stroke-linejoin="round"/>
    <path d="M14.8299 14.83L9.16992 9.17004" stroke="currentColor" stroke-width="1.5" stroke-linecap="round" stroke-linejoin="round"/>
  </symbol>

  <!-- Añadir / Más -->
  <symbol id="add" viewBox="0 0 24 24" fill="none">
    <path d="M6 12H18" stroke="currentColor" stroke-width="1.5" stroke-linecap="round" stroke-linejoin="round"/>
    <path d="M12 18V6" stroke="currentColor" stroke-width="1.5" stroke-linecap="round" stroke-linejoin="round"/>
  </symbol>

  <!-- Flecha Abajo -->
  <symbol id="arrow-down1" viewBox="0 0 24 24" fill="none">
    <path d="M19.92 8.94995L13.4 15.47C12.63 16.24 11.37 16.24 10.6 15.47L4.07996 8.94995" stroke="currentColor" stroke-width="1.5" stroke-linecap="round" stroke-linejoin="round"/>
  </symbol>

  <!-- Arrow 2 -->
  <symbol id="arrow-2" viewBox="0 0 24 24" fill="none">
    <path d="M17.28 10.45L21 6.72998L17.28 3.01001" stroke="currentColor" stroke-width="1.5" stroke-linecap="round" stroke-linejoin="round"/>
    <path d="M3 6.72998H21" stroke="currentColor" stroke-width="1.5" stroke-linecap="round" stroke-linejoin="round"/>
    <path d="M6.71997 13.55L3 17.2701L6.71997 20.9901" stroke="currentColor" stroke-width="1.5" stroke-linecap="round" stroke-linejoin="round"/>
    <path d="M21 17.27H3" stroke="currentColor" stroke-width="1.5" stroke-linecap="round" stroke-linejoin="round"/>
  </symbol>

  <!-- Maximize 4 -->
  <symbol id="maximize-4" viewBox="0 0 24 24" fill="none">
    <path d="M21 9V3H15" stroke="currentColor" stroke-width="1.5" stroke-linecap="round" stroke-linejoin="round"/>
    <path d="M3 15V21H9" stroke="currentColor" stroke-width="1.5" stroke-linecap="round" stroke-linejoin="round"/>
    <path d="M21 3L13.5 10.5" stroke="currentColor" stroke-width="1.5" stroke-linecap="round" stroke-linejoin="round"/>
    <path d="M10.5 13.5L3 21" stroke="currentColor" stroke-width="1.5" stroke-linecap="round" stroke-linejoin="round"/>
  </symbol>

  <!-- Calendario (Genérico) -->
  <symbol id="calendar" viewBox="0 0 24 24" fill="none">
    <path d="M8 2V5" stroke="currentColor" stroke-width="1.5" stroke-linecap="round" stroke-linejoin="round"/>
    <path d="M16 2V5" stroke="currentColor" stroke-width="1.5" stroke-linecap="round" stroke-linejoin="round"/>
    <path d="M3.5 9.08997H20.5" stroke="currentColor" stroke-width="1.5" stroke-linecap="round" stroke-linejoin="round"/>
    <path d="M21 8.5V17C21 20 19.5 22 16 22H8C4.5 22 3 20 3 17V8.5C3 5.5 4.5 3.5 8 3.5H16C19.5 3.5 21 5.5 21 8.5Z" stroke="currentColor" stroke-width="1.5" stroke-linecap="round" stroke-linejoin="round"/>
    <path d="M11.9955 13.7H12.0045" stroke="currentColor" stroke-width="2" stroke-linecap="round" stroke-linejoin="round"/>
  </symbol>

  <!-- Calendario Filtro -->
  <symbol id="calendar-filter" viewBox="0 0 24 24" fill="none">
    <path d="M8 2V5" stroke="currentColor" stroke-width="1.5" stroke-miterlimit="10" stroke-linecap="round" stroke-linejoin="round"/>
    <path d="M16 2V5" stroke="currentColor" stroke-width="1.5" stroke-miterlimit="10" stroke-linecap="round" stroke-linejoin="round"/>
    <path d="M3.5 9.09H20.5" stroke="currentColor" stroke-width="1.5" stroke-miterlimit="10" stroke-linecap="round" stroke-linejoin="round"/>
    <path d="M21 8.5V17C21 20 19.5 22 16 22H8C4.5 22 3 20 3 17V8.5C3 5.5 4.5 3.5 8 3.5H16C19.5 3.5 21 5.5 21 8.5Z" stroke="currentColor" stroke-width="1.5" stroke-miterlimit="10" stroke-linecap="round" stroke-linejoin="round"/>
    <path d="M15.6947 13.7H15.7037" stroke="currentColor" stroke-width="2" stroke-linecap="round" stroke-linejoin="round"/>
    <path d="M15.6947 16.7H15.7037" stroke="currentColor" stroke-width="2" stroke-linecap="round" stroke-linejoin="round"/>
    <path d="M11.9955 13.7H12.0045" stroke="currentColor" stroke-width="2" stroke-linecap="round" stroke-linejoin="round"/>
    <path d="M11.9955 16.7H12.0045" stroke="currentColor" stroke-width="2" stroke-linecap="round" stroke-linejoin="round"/>
    <path d="M8.29431 13.7H8.30329" stroke="currentColor" stroke-width="2" stroke-linecap="round" stroke-linejoin="round"/>
    <path d="M8.29431 16.7H8.30329" stroke="currentColor" stroke-width="2" stroke-linecap="round" stroke-linejoin="round"/>
  </symbol>

  <!-- Documento / Texto -->
  <symbol id="document" viewBox="0 0 24 24" fill="none">
    <path d="M22 10V15C22 20 20 22 15 22H9C4 22 2 20 2 15V9C2 4 4 2 9 2H14" stroke="currentColor" stroke-width="1.5" stroke-linecap="round" stroke-linejoin="round"/>
    <path d="M22 10H18C15 10 14 9 14 6V2L22 10Z" stroke="currentColor" stroke-width="1.5" stroke-linecap="round" stroke-linejoin="round"/>
    <path d="M7 13H13" stroke="currentColor" stroke-width="1.5" stroke-linecap="round" stroke-linejoin="round"/>
    <path d="M7 17H11" stroke="currentColor" stroke-width="1.5" stroke-linecap="round" stroke-linejoin="round"/>
  </symbol>

  <!-- Título del Cupón / Ticket -->
  <symbol id="coupon-title" viewBox="0 0 24 24" fill="none">
    <path d="M12.5 15V18" stroke="currentColor" stroke-width="1.5" stroke-linecap="round" stroke-linejoin="round"/>
    <path d="M12.5 6V9" stroke="currentColor" stroke-width="1.5" stroke-linecap="round" stroke-linejoin="round"/>
    <path d="M12.5 10.5V13.5" stroke="currentColor" stroke-width="1.5" stroke-linecap="round" stroke-linejoin="round"/>
    <path d="M9 2H15C19 2 22 3 22 8V16C22 21 19 22 15 22H9C5 22 2 21 2 16V8C2 3 5 2 9 2Z" stroke="currentColor" stroke-width="1.5" stroke-linecap="round" stroke-linejoin="round"/>
  </symbol>

  <!-- Categoría / Etiquetas -->
  <symbol id="category" viewBox="0 0 24 24" fill="none">
    <path d="M15 22H9C4 22 2 20 2 15V9C2 4 4 2 9 2H15C20 2 22 4 22 9V15C22 20 20 22 15 22Z" stroke="currentColor" stroke-width="1.5" stroke-linecap="round" stroke-linejoin="round"/>
    <path d="M7 9.5H17" stroke="currentColor" stroke-width="1.5" stroke-linecap="round" stroke-linejoin="round"/>
    <path d="M7 14.5H12" stroke="currentColor" stroke-width="1.5" stroke-linecap="round" stroke-linejoin="round"/>
  </symbol>

  <!-- Estado / Check Circular -->
  <symbol id="status" viewBox="0 0 24 24" fill="none">
    <path d="M12 22C17.5228 22 22 17.5228 22 12C22 6.47715 17.5228 2 12 2C6.47715 2 2 6.47715 2 12C2 17.5228 6.47715 22 12 22Z" stroke="currentColor" stroke-width="1.5" stroke-linecap="round" stroke-linejoin="round"/>
    <path d="M7.75 12L10.58 14.83L16.25 9.17004" stroke="currentColor" stroke-width="1.5" stroke-linecap="round" stroke-linejoin="round"/>
  </symbol>

  <!-- Cantidad Disponible / Stock -->
  <symbol id="quantity" viewBox="0 0 24 24" fill="none">
    <path d="M22 7L12 2L2 7L12 12L22 7Z" stroke="currentColor" stroke-width="1.5" stroke-linecap="round" stroke-linejoin="round"/>
    <path d="M2 17L12 22L22 17" stroke="currentColor" stroke-width="1.5" stroke-linecap="round" stroke-linejoin="round"/>
    <path d="M2 12L12 17L22 12" stroke="currentColor" stroke-width="1.5" stroke-linecap="round" stroke-linejoin="round"/>
  </symbol>

  <!-- Fecha Inicio / Calendario Entrada -->
  <symbol id="date-start" viewBox="0 0 24 24" fill="none">
    <path d="M8 2V5" stroke="currentColor" stroke-width="1.5" stroke-linecap="round" stroke-linejoin="round"/>
    <path d="M16 2V5" stroke="currentColor" stroke-width="1.5" stroke-linecap="round" stroke-linejoin="round"/>
    <path d="M3 9H21" stroke="currentColor" stroke-width="1.5" stroke-linecap="round" stroke-linejoin="round"/>
    <path d="M21 13V17C21 20 19.5 22 16 22H8C4.5 22 3 20 3 17V8.5C3 5.5 4.5 3.5 8 3.5H16C19.5 3.5 21 5.5 21 8.5V10" stroke="currentColor" stroke-width="1.5" stroke-linecap="round" stroke-linejoin="round"/>
    <path d="M14.5 15.5L12 18L9.5 15.5" stroke="currentColor" stroke-width="1.5" stroke-linecap="round" stroke-linejoin="round"/>
  </symbol>

  <!-- Fecha Fin / Calendario Salida -->
  <symbol id="date-end" viewBox="0 0 24 24" fill="none">
    <path d="M8 2V5" stroke="currentColor" stroke-width="1.5" stroke-linecap="round" stroke-linejoin="round"/>
    <path d="M16 2V5" stroke="currentColor" stroke-width="1.5" stroke-linecap="round" stroke-linejoin="round"/>
    <path d="M3 9H21" stroke="currentColor" stroke-width="1.5" stroke-linecap="round" stroke-linejoin="round"/>
    <path d="M21 13V17C21 20 19.5 22 16 22H8C4.5 22 3 20 3 17V8.5C3 5.5 4.5 3.5 8 3.5H16C19.5 3.5 21 5.5 21 8.5V10" stroke="currentColor" stroke-width="1.5" stroke-linecap="round" stroke-linejoin="round"/>
    <path d="M12 13V18" stroke="currentColor" stroke-width="1.5" stroke-linecap="round" stroke-linejoin="round"/>
  </symbol>

  <!-- Términos y Condiciones / Legal -->
  <symbol id="terms" viewBox="0 0 24 24" fill="none">
    <path d="M12 22C12 22 20 18 20 12V5L12 2L4 5V12C4 18 12 22 12 22Z" stroke="currentColor" stroke-width="1.5" stroke-linecap="round" stroke-linejoin="round"/>
    <path d="M9 12L11 14L15 10" stroke="currentColor" stroke-width="1.5" stroke-linecap="round" stroke-linejoin="round"/>
  </symbol>

  <!-- Descripción / Texto Documento -->
  <symbol id="description-text" viewBox="0 0 24 24" fill="none">
    <path d="M22 10V15C22 20 20 22 15 22H9C4 22 2 20 2 15V9C2 4 4 2 9 2H14" stroke="currentColor" stroke-width="1.5" stroke-linecap="round" stroke-linejoin="round"/>
    <path d="M22 10H18C15 10 14 9 14 6V2L22 10Z" stroke="currentColor" stroke-width="1.5" stroke-linecap="round" stroke-linejoin="round"/>
    <path d="M7 13H13" stroke="currentColor" stroke-width="1.5" stroke-linecap="round" stroke-linejoin="round"/>
    <path d="M7 17H11" stroke="currentColor" stroke-width="1.5" stroke-linecap="round" stroke-linejoin="round"/>
  </symbol>

  <!-- Cupón Regalo -->
  <symbol id="coupon-gift" viewBox="0 0 24 24" fill="none">
    <path d="M11.55 10H6.45C4.65 10 4.25 10.9 4.02 12.01L3.2 15.93H14.8L13.98 12.01C13.75 10.9 13.35 10 11.55 10Z" stroke="currentColor" stroke-width="1.5" stroke-linecap="round" stroke-linejoin="round"/>
    <path d="M16.24 22.32C16.32 23.17 15.64 23.9 14.77 23.9H13.41C12.63 23.9 12.52 23.57 12.38 23.15L12.23 22.72C12.03 22.13 11.9 21.73 10.85 21.73H7.14C6.1 21.73 5.94 22.18 5.76 22.72L5.61 23.15C5.47 23.56 5.36 23.9 4.58 23.9H3.22C2.35 23.9 1.67 23.17 1.75 22.32L2.16 17.9C2.26 16.81 2.47 15.92 4.37 15.92H13.62C15.52 15.92 15.73 16.81 15.83 17.9L16.24 22.32Z" stroke="currentColor" stroke-width="1.5" stroke-linecap="round" stroke-linejoin="round"/>
    <path d="M9 25V26" stroke="currentColor" stroke-width="1.5" stroke-linecap="round" stroke-linejoin="round"/>
  </symbol>

  <!-- Categoría Tienda / Comercio -->
  <symbol id="category-shop" viewBox="0 0 24 24" fill="none">
    <path d="M18.51 2.83H11.49C9 2.83 8.45 4.07 8.13 5.59L7 11H23L21.87 5.59C21.55 4.07 21 2.83 18.51 2.83Z" stroke="currentColor" stroke-width="1.5" stroke-linecap="round" stroke-linejoin="round"/>
    <path d="M24.99 19.82C25.1 20.99 24.16 22 22.96 22H21.08C20 22 19.85 21.54 19.66 20.97L19.46 20.37C19.18 19.55 19 19 17.56 19H12.44C11 19 10.79 19.62 10.54 20.37L10.34 20.97C10.15 21.54 10 22 8.92 22H7.04C5.84 22 4.9 20.99 5.01 19.82L5.57 13.73C5.71 12.23 6 11 8.62 11H21.38C24 11 24.29 12.23 24.43 13.73L24.99 19.82Z" stroke="currentColor" stroke-width="1.5" stroke-linecap="round" stroke-linejoin="round"/>
  </symbol>

  <!-- Estado / Medalla de Logro -->
  <symbol id="status-badge" viewBox="0 0 24 24" fill="none">
    <path d="M12.03 21.69L14.36 19.73C14.71 19.43 15.29 19.43 15.64 19.73L17.97 21.69C18.51 21.96 19.17 21.69 19.37 21.11L19.81 19.78C19.92 19.46 19.81 18.99 19.57 18.75L17.3 16.47C17.13 16.31 17 15.99 17 15.76V12.91C17 12.49 17.31 12.29 17.7 12.45L22.61 14.57C23.38 14.9 24.01 14.49 24.01 13.65V12.36C24.01 11.69 23.51 10.92 22.89 10.66L17.3 8.25C17.14 8.18 17 7.97 17 7.79V4.79C17 3.85 16.31 2.74 15.47 2.31C15.17 2.16 14.82 2.16 14.52 2.31C13.68 2.74 12.99 3.86 12.99 4.8V7.8C12.99 7.98 12.85 8.19 12.69 8.26L7.11 10.67C6.49 10.92 5.99 11.69 5.99 12.36V13.65C5.99 14.49 6.62 14.9 6.739 14.57L12.3 12.45C12.68 12.28 13 12.49 13 12.91V15.76C13 15.99 12.87 16.31 12.71 16.47L10.44 18.75C10.2 18.99 10.09 19.45 10.2 19.78L10.64 21.11C10.82 21.69 11.48 21.97 12.03 21.69Z" stroke="currentColor" stroke-width="1.5" stroke-linecap="round" stroke-linejoin="round"/>
  </symbol>

  <!-- Confirmación / Círculo Check -->
  <symbol id="status-check" viewBox="0 0 24 24" fill="none">
    <path d="M12 22C17.5 22 22 17.5 22 12C22 6.5 17.5 2 12 2C6.5 2 2 6.5 2 12C2 17.5 6.5 22 12 22Z" stroke="currentColor" stroke-width="1.5" stroke-linecap="round" stroke-linejoin="round"/>
    <path d="M7.75 12L10.58 14.83L16.25 9.17" stroke="currentColor" stroke-width="1.5" stroke-linecap="round" stroke-linejoin="round"/>
  </symbol>

  <!-- Menú / Hamburguesa -->
  <symbol id="menu" viewBox="0 0 24 24" fill="none">
    <path d="M3 7H21" stroke="currentColor" stroke-width="1.5" stroke-linecap="round" stroke-linejoin="round"/>
    <path d="M3 12H21" stroke="currentColor" stroke-width="1.5" stroke-linecap="round" stroke-linejoin="round"/>
    <path d="M3 17H21" stroke="currentColor" stroke-width="1.5" stroke-linecap="round" stroke-linejoin="round"/>
  </symbol>

  <!-- Búsqueda / Lupa -->
  <symbol id="search" viewBox="0 0 24 24" fill="none">
    <path d="M11.5 21C16.7467 21 21 16.7467 21 11.5C21 6.25329 16.7467 2 11.5 2C6.25329 2 2 6.25329 2 11.5C2 16.7467 6.25329 21 11.5 21Z" stroke="currentColor" stroke-width="1.5" stroke-linecap="round" stroke-linejoin="round"/>
    <path d="M22 22L20 20" stroke="currentColor" stroke-width="1.5" stroke-linecap="round" stroke-linejoin="round"/>
  </symbol>

  <!-- Aplicaciones / Cuadrícula -->
  <symbol id="apps" viewBox="0 0 24 24" fill="none">
    <path d="M5 10H7C9 10 10 9 10 7V5C10 3 9 2 7 2H5C3 2 2 3 2 5V7C2 9 3 10 5 10Z" stroke="currentColor" stroke-width="1.5" stroke-linecap="round" stroke-linejoin="round"/>
    <path d="M17 10H19C21 10 22 9 22 7V5C22 3 21 2 19 2H17C15 2 14 3 14 5V7C14 9 15 10 17 10Z" stroke="currentColor" stroke-width="1.5" stroke-linecap="round" stroke-linejoin="round"/>
    <path d="M17 22H19C21 22 22 21 22 19V17C22 15 21 14 19 14H17C15 14 14 15 14 17V19C14 21 15 22 17 22Z" stroke="currentColor" stroke-width="1.5" stroke-linecap="round" stroke-linejoin="round"/>
    <path d="M5 22H7C9 22 10 21 10 19V17C10 15 9 14 7 14H5C3 14 2 15 2 17V19C2 21 3 22 5 22Z" stroke="currentColor" stroke-width="1.5" stroke-linecap="round" stroke-linejoin="round"/>
  </symbol>

  <!-- Visualizar / Ojo -->
  <symbol id="eye" viewBox="0 0 24 24" fill="none">
    <path d="M15.58 12C15.58 13.98 13.98 15.58 12 15.58C10.02 15.58 8.42004 13.98 8.42004 12C8.42004 10.02 10.02 8.42004 12 8.42004C13.98 8.42004 15.58 10.02 15.58 12Z" stroke="currentColor" stroke-width="1.5" stroke-linecap="round" stroke-linejoin="round"/>
    <path d="M12 20.27C15.53 20.27 18.82 18.19 21.11 14.59C22.01 13.18 22.01 10.81 21.11 9.39997C18.82 5.79997 15.53 3.71997 12 3.71997C8.46997 3.71997 5.17997 5.79997 2.88997 9.39997C1.98997 10.81 1.98997 13.18 2.88997 14.59C5.17997 18.19 8.46997 20.27 12 20.27Z" stroke="currentColor" stroke-width="1.5" stroke-linecap="round" stroke-linejoin="round"/>
  </symbol>

  <!-- Código / JSON -->
  <symbol id="code" viewBox="0 0 24 24" fill="none">
    <path d="M6.89014 9C7.87014 9.49 8.71014 10.23 9.32014 11.15C9.67014 11.67 9.67014 12.34 9.32014 12.86C8.71014 13.77 7.87014 14.51 6.89014 15" stroke="currentColor" stroke-width="1.5" stroke-linecap="round" stroke-linejoin="round"/>
    <path d="M13 15H17" stroke="currentColor" stroke-width="1.5" stroke-linecap="round" stroke-linejoin="round"/>
    <path d="M9 22H15C20 22 22 20 22 15V9C22 4 20 2 15 2H9C4 2 2 4 2 9V15C2 20 4 22 9 22Z" stroke="currentColor" stroke-width="1.5" stroke-linecap="round" stroke-linejoin="round"/>
  </symbol>

  <!-- Edificios / Dispositivo o Sede -->
  <symbol id="card-device" viewBox="0 0 24 24" fill="none">
    <path d="M13 22H5C3 22 2 21 2 19V11C2 9 3 8 5 8H10V19C10 21 11 22 13 22Z" stroke="currentColor" stroke-width="1.5" stroke-linecap="round" stroke-linejoin="round"/>
    <path d="M10.11 4C10.03 4.3 10 4.63 10 5V8H5V6C5 4.9 5.9 4 7 4H10.11Z" stroke="currentColor" stroke-width="1.5" stroke-linecap="round" stroke-linejoin="round"/>
    <path d="M14 8V13" stroke="currentColor" stroke-width="1.5" stroke-linecap="round" stroke-linejoin="round"/>
    <path d="M18 8V13" stroke="currentColor" stroke-width="1.5" stroke-linecap="round" stroke-linejoin="round"/>
    <path d="M17 17H15C14.45 17 14 17.45 14 18V22H18V18C18 17.45 17.55 17 17 17Z" stroke="currentColor" stroke-width="1.5" stroke-linecap="round" stroke-linejoin="round"/>
    <path d="M6 13V17" stroke="currentColor" stroke-width="1.5" stroke-linecap="round" stroke-linejoin="round"/>
    <path d="M10 19V5C10 3 11 2 13 2H19C21 2 22 3 22 5V19C22 21 21 22 19 22H13C11 22 10 21 10 19Z" stroke="currentColor" stroke-width="1.5" stroke-linecap="round" stroke-linejoin="round"/>
  </symbol>

  <!-- Ordenar / Arriba y Abajo -->
  <symbol id="arrow-up-down" viewBox="0 0 24 24" fill="none">
    <path d="M10.45 6.71997L6.72998 3L3.01001 6.71997" stroke="currentColor" stroke-width="1.5" stroke-linecap="round" stroke-linejoin="round"/>
    <path d="M6.72998 21V3" stroke="currentColor" stroke-width="1.5" stroke-linecap="round" stroke-linejoin="round"/>
    <path d="M13.55 17.28L17.2701 21L20.9901 17.28" stroke="currentColor" stroke-width="1.5" stroke-linecap="round" stroke-linejoin="round"/>
    <path d="M17.27 3V21" stroke="currentColor" stroke-width="1.5" stroke-linecap="round" stroke-linejoin="round"/>
  </symbol>

  <!-- Buscar en Documento -->
  <symbol id="document-search" viewBox="0 0 24 24" fill="none">
    <path d="M20.5 11.3V7.04001C20.5 3.01001 19.56 2 15.78 2H8.22C4.44 2 3.5 3.01001 3.5 7.04001V18.3C3.5 20.96 4.96001 21.59 6.73001 19.69L6.73999 19.68C7.55999 18.81 8.80999 18.88 9.51999 19.83L10.53 21.18" stroke="currentColor" stroke-width="1.5" stroke-linecap="round" stroke-linejoin="round"/>
    <path d="M18.2 21.4C19.9673 21.4 21.4 19.9673 21.4 18.2C21.4 16.4327 19.9673 15 18.2 15C16.4327 15 15 16.4327 15 18.2C15 19.9673 16.4327 21.4 18.2 21.4Z" stroke="currentColor" stroke-width="1.5" stroke-linecap="round" stroke-linejoin="round"/>
    <path d="M22 22L21 21" stroke="currentColor" stroke-width="1.5" stroke-linecap="round" stroke-linejoin="round"/>
    <path d="M8 7H16" stroke="currentColor" stroke-width="1.5" stroke-linecap="round" stroke-linejoin="round"/>
    <path d="M9 11H15" stroke="currentColor" stroke-width="1.5" stroke-linecap="round" stroke-linejoin="round"/>
  </symbol>

  <!-- Estadísticas / Gráfica -->
  <symbol id="statistics" viewBox="0 0 24 24" fill="none">
    <path d="M2 2V19C2 20.66 3.34 22 5 22H22" stroke="currentColor" stroke-width="1.5" stroke-linecap="round" stroke-linejoin="round"/>
    <path d="M5 17L9.59 11.64C10.35 10.76 11.7 10.7 12.52 11.53L13.47 12.48C14.29 13.3 15.64 13.25 16.4 12.37L21 7" stroke="currentColor" stroke-width="1.5" stroke-linecap="round" stroke-linejoin="round"/>
  </symbol>

  <!-- Estadísticas Admin / Gráfica Cuadrada -->
  <symbol id="statistics-admin" viewBox="0 0 24 24" fill="none">
    <path d="M6.87988 18.15V16.08" stroke="currentColor" stroke-width="1.5" stroke-linecap="round"/>
    <path d="M12 18.15V14.01" stroke="currentColor" stroke-width="1.5" stroke-linecap="round"/>
    <path d="M17.1201 18.15V11.93" stroke="currentColor" stroke-width="1.5" stroke-linecap="round"/>
    <path d="M17.1199 5.84998L16.6599 6.38998C14.1099 9.36998 10.6899 11.48 6.87988 12.43" stroke="currentColor" stroke-width="1.5" stroke-linecap="round"/>
    <path d="M14.1899 5.84998H17.1199V8.76998" stroke="currentColor" stroke-width="1.5" stroke-linecap="round" stroke-linejoin="round"/>
    <path d="M9 22H15C20 22 22 20 22 15V9C22 4 20 2 15 2H9C4 2 2 4 2 9V15C2 20 4 22 9 22Z" stroke="currentColor" stroke-width="1.5" stroke-linecap="round" stroke-linejoin="round"/>
  </symbol>

  <!-- Gestión de Cupones -->
  <symbol id="coupon-manage" viewBox="0 0 24 24" fill="none">
    <path d="M19.5 12.5C19.5 11.12 20.62 10 22 10V9C22 5 21 4 17 4H7C3 4 2 5 2 9V9.5C3.38 9.5 4.5 10.62 4.5 12C4.5 13.38 3.38 14.5 2 14.5V15C2 19 3 20 7 20H17C21 20 22 19 22 15C20.62 15 19.5 13.88 19.5 12.5Z" stroke="currentColor" stroke-width="1.5" stroke-linecap="round" stroke-linejoin="round"/>
    <path d="M10 4L10 20" stroke="currentColor" stroke-width="1.5" stroke-linecap="round" stroke-linejoin="round" stroke-dasharray="5 5"/>
  </symbol>

  <!-- Canje de Cupones -->
  <symbol id="coupon-exchange" viewBox="0 0 24 24" fill="none">
    <path d="M18.91 14.6925C18.91 15.9825 19.97 17.0325 21.26 17.0325C21.26 20.7825 20.32 21.7225 16.57 21.7225H7.19C3.44 21.7225 2.5 20.7825 2.5 17.0325V16.5725C3.79 16.5725 4.85 15.5125 4.85 14.2225C4.85 12.9325 3.79 11.8725 2.5 11.8725V11.4125C2.51 7.66247 3.44 6.72247 7.19 6.72247H16.56C20.31 6.72247 21.25 7.66247 21.25 11.4125V12.3525C19.96 12.3525 18.91 13.3925 18.91 14.6925Z" stroke="currentColor" stroke-width="1.5" stroke-linecap="round" stroke-linejoin="round"/>
    <path d="M16.2111 6.7225H7.12109L10.0511 3.7925C12.4411 1.4025 13.6411 1.4025 16.0311 3.7925L16.6311 4.3925C16.0011 5.0225 15.8511 5.9525 16.2111 6.7225Z" stroke="currentColor" stroke-width="1.5" stroke-linecap="round" stroke-linejoin="round"/>
    <path d="M9.87891 6.72266L9.87891 21.7227" stroke="currentColor" stroke-width="1.5" stroke-linecap="round" stroke-linejoin="round" stroke-dasharray="5 5"/>
  </symbol>

  <!-- Documento con Check / Confirmado -->
  <symbol id="document-check" viewBox="0 0 24 24" fill="none">
    <path d="M2 2V19C2 20.66 3.34 22 5 22H22" stroke="currentColor" stroke-width="1.5" stroke-linecap="round" stroke-linejoin="round"/>
    <path d="M5 17L9.59 11.64C10.35 10.76 11.7 10.7 12.52 11.53L13.47 12.48C14.29 13.3 15.64 13.25 16.4 12.37L21 7" stroke="currentColor" stroke-width="1.5" stroke-linecap="round" stroke-linejoin="round"/>
  </symbol>

  <!-- Chat de Documento / Mensajes -->
  <symbol id="document-chat" viewBox="0 0 24 24" fill="none">
    <path d="M22 6.25V11.35C22 12.62 21.58 13.69 20.83 14.43C20.09 15.18 19.02 15.6 17.75 15.6V17.41C17.75 18.09 16.99 18.5 16.43 18.12L15.46 17.48C15.55 17.17 15.59 16.83 15.59 16.47V12.4C15.59 10.36 14.23 9 12.19 9H5.39999C5.25999 9 5.13 9.01002 5 9.02002V6.25C5 3.7 6.7 2 9.25 2H17.75C20.3 2 22 3.7 22 6.25Z" stroke="currentColor" stroke-width="1.5" stroke-linecap="round" stroke-linejoin="round"/>
    <path d="M15.59 12.4V16.47C15.59 16.83 15.55 17.17 15.46 17.48C15.09 18.95 13.87 19.87 12.19 19.87H9.47L6.45 21.88C6 22.19 5.39999 21.86 5.39999 21.32V19.87C4.37999 19.87 3.53 19.53 2.94 18.94C2.34 18.34 2 17.49 2 16.47V12.4C2 10.5 3.18 9.19002 5 9.02002C5.13 9.01002 5.25999 9 5.39999 9H12.19C14.23 9 15.59 10.36 15.59 12.4Z" stroke="currentColor" stroke-width="1.5" stroke-linecap="round" stroke-linejoin="round"/>
  </symbol>

  <!-- Escanear QR / Cámara -->
  <symbol id="scan-qr" viewBox="0 0 24 24" fill="none">
    <path d="M6.75992 22H17.2399C19.9999 22 21.0999 20.31 21.2299 18.25L21.7499 9.99C21.8899 7.83 20.1699 6 17.9999 6C17.3899 6 16.8299 5.65 16.5499 5.11L15.8299 3.66C15.3699 2.75 14.1699 2 13.1499 2H10.8599C9.82992 2 8.62992 2.75 8.16992 3.66L7.44992 5.11C7.16992 5.65 6.60992 6 5.99992 6C3.82992 6 2.10992 7.83 2.24992 9.99L2.76992 18.25C2.88992 20.31 3.99992 22 6.75992 22Z" stroke="currentColor" stroke-width="1.5" stroke-linecap="round" stroke-linejoin="round"/>
    <path d="M10.5 8H13.5" stroke="currentColor" stroke-width="1.5" stroke-linecap="round" stroke-linejoin="round"/>
    <path d="M12 18C13.79 18 15.25 16.54 15.25 14.75C15.25 12.96 13.79 11.5 12 11.5C10.21 11.5 8.75 12.96 8.75 14.75C8.75 16.54 10.21 18 12 18Z" stroke="currentColor" stroke-width="1.5" stroke-linecap="round" stroke-linejoin="round"/>
  </symbol>

  <!-- Alerta / Exclamación Hexagonal -->
  <symbol id="alert-hexagon" viewBox="0 0 32 32" fill="none">
    <path d="M16 10.333V17.333" stroke="currentColor" stroke-width="1.5" stroke-linecap="round" stroke-linejoin="round"/>
    <path d="M28.1067 11.4404V20.5603C28.1067 22.0537 27.3067 23.4404 26.0134 24.2004L18.0934 28.7737C16.8 29.5204 15.2 29.5204 13.8934 28.7737L5.97335 24.2004C4.68001 23.4537 3.88 22.067 3.88 20.5603V11.4404C3.88 9.94704 4.68001 8.56032 5.97335 7.80032L13.8934 3.22699C15.1867 2.48033 16.7867 2.48033 18.0934 3.22699L26.0134 7.80032C27.3067 8.56032 28.1067 9.9337 28.1067 11.4404Z" stroke="currentColor" stroke-width="1.5" stroke-linecap="round" stroke-linejoin="round"/>
    <path d="M16 21.5996V21.7329" stroke="currentColor" stroke-width="2" stroke-linecap="round" stroke-linejoin="round"/>
  </symbol>

  <!-- Confirmación / Círculo con Check (Estilo Minimalista) -->
  <symbol id="check-circle" viewBox="0 0 24 24" fill="none">
    <circle cx="12" cy="12" r="9" stroke="currentColor" stroke-width="1.5" stroke-linecap="round" stroke-linejoin="round"/>
    <path d="M8 12L10.5 14.5L16 9" stroke="currentColor" stroke-width="1.5" stroke-linecap="round" stroke-linejoin="round"/>
  </symbol>

  <!-- Carga / Refrescar / Actualizar -->
  <symbol id="loading" viewBox="0 0 24 24" fill="none">
    <path d="M21 12a9 9 0 11-9-9c2.52 0 4.93 1 6.74 2.74L21 8M21 3V8H16" stroke="currentColor" stroke-width="1.5" stroke-linecap="round" stroke-linejoin="round"/>
  </symbol>

  <!-- Escoba / Broom -->
  <symbol id="broom" viewBox="0 0 24 24" fill="none">
    <path d="M9.86982 5.66998L6.44982 7.74999L4.88982 5.19C4.31982 4.25 4.61982 3.01 5.55982 2.44C6.49982 1.87 7.73982 2.16998 8.30982 3.10998L9.86982 5.66998Z" stroke="currentColor" stroke-width="1.5" stroke-linecap="round" stroke-linejoin="round"/>
    <path d="M11.8201 9.15997L8.66012 11.08C6.82012 12.2 6.26011 14.46 7.15011 16.26L9.20011 20.44C9.86011 21.79 11.4601 22.26 12.7401 21.47L19.1701 17.56C20.4601 16.78 20.7701 15.15 19.8801 13.94L17.1101 10.2C15.9101 8.58001 13.6601 8.03997 11.8201 9.15997Z" stroke="currentColor" stroke-width="1.5" stroke-linecap="round" stroke-linejoin="round"/>
    <path d="M10.7564 5.09791L5.63184 8.21851L7.71224 11.6349L12.8368 8.51431L10.7564 5.09791Z" stroke="currentColor" stroke-width="1.5" stroke-linecap="round" stroke-linejoin="round"/>
    <path d="M14.3101 16.8101L15.9601 19.5201" stroke="currentColor" stroke-width="1.5" stroke-linecap="round" stroke-linejoin="round"/>
    <path d="M11.75 18.37L13.4 21.08" stroke="currentColor" stroke-width="1.5" stroke-linecap="round" stroke-linejoin="round"/>
    <path d="M16.8701 15.25L18.5201 17.96" stroke="currentColor" stroke-width="1.5" stroke-linecap="round" stroke-linejoin="round"/>
  </symbol>

  <!-- Coupon 1 / Ticket -->
  <symbol id="coupon1" viewBox="0 0 24 24" fill="none">
    <path d="M18.91 14.6925C18.91 15.9825 19.97 17.0325 21.26 17.0325C21.26 20.7825 20.32 21.7225 16.57 21.7225H7.19C3.44 21.7225 2.5 20.7825 2.5 17.0325V16.5725C3.79 16.5725 4.85 15.5125 4.85 14.2225C4.85 12.9325 3.79 11.8725 2.5 11.8725V11.4125C2.51 7.66247 3.44 6.72247 7.19 6.72247H16.56C20.31 6.72247 21.25 7.66247 21.25 11.4125V12.3525C19.96 12.3525 18.91 13.3925 18.91 14.6925Z" stroke="currentColor" stroke-width="1.5" stroke-linecap="round" stroke-linejoin="round"/>
    <path d="M9.87891 6.72266L9.87891 21.7227" stroke="currentColor" stroke-width="1.5" stroke-linecap="round" stroke-linejoin="round" stroke-dasharray="5 5"/>
    <path d="M14.7 10.7L12.9 12.5L11.7 11.3" stroke="currentColor" stroke-width="1.5" stroke-linecap="round" stroke-linejoin="round"/>
  </symbol>

  <!-- SMS Tracking -->
  <symbol id="sms-tracking" viewBox="0 0 24 24" fill="none">
    <path d="M2 8.5C2 5 4 3.5 7 3.5H17C20 3.5 22 5 22 8.5V15.5C22 19 20 20.5 17 20.5H7" stroke="currentColor" stroke-width="1.5" stroke-miterlimit="10" stroke-linecap="round" stroke-linejoin="round"/>
    <path d="M17 9L13.87 11.5C12.84 12.32 11.15 12.32 10.12 11.5L7 9" stroke="currentColor" stroke-width="1.5" stroke-miterlimit="10" stroke-linecap="round" stroke-linejoin="round"/>
    <path d="M2 16.5H8" stroke="currentColor" stroke-width="1.5" stroke-miterlimit="10" stroke-linecap="round" stroke-linejoin="round"/>
    <path d="M2 12.5H5" stroke="currentColor" stroke-width="1.5" stroke-miterlimit="10" stroke-linecap="round" stroke-linejoin="round"/>
  </symbol>

  <!-- SMS + Edit -->
  <symbol id="sms-edit" viewBox="0 0 24 24" fill="none">
    <path d="M12 20.5H7C4 20.5 2 19 2 15.5V8.5C2 5 4 3.5 7 3.5H17C20 3.5 22 5 22 8.5V11.5" stroke="currentColor" stroke-width="1.5" stroke-miterlimit="10" stroke-linecap="round" stroke-linejoin="round"/>
    <path d="M17 9L13.87 11.5C12.84 12.32 11.15 12.32 10.12 11.5L7 9" stroke="currentColor" stroke-width="1.5" stroke-miterlimit="10" stroke-linecap="round" stroke-linejoin="round"/>
    <path d="M19.21 14.77L15.6701 18.31C15.5301 18.45 15.4 18.71 15.37 18.9L15.18 20.25C15.11 20.74 15.45 21.0801 15.94 21.0101L17.29 20.82C17.48 20.79 17.75 20.66 17.88 20.52L21.4201 16.9801C22.0301 16.3701 22.3201 15.6601 21.4201 14.7601C20.5301 13.8701 19.82 14.16 19.21 14.77Z" stroke="currentColor" stroke-width="1.5" stroke-miterlimit="10" stroke-linecap="round" stroke-linejoin="round"/>
    <path d="M18.7001 15.28C19.0001 16.36 19.8401 17.2 20.9201 17.5" stroke="currentColor" stroke-width="1.5" stroke-miterlimit="10" stroke-linecap="round" stroke-linejoin="round"/>
  </symbol>

  <!-- Ticket Money -->
  <symbol id="ticket-money" viewBox="0 0 24 24" fill="none">
    <path d="M19.5 12.5C19.5 11.12 20.62 10 22 10V9C22 5 21 4 17 4H7C3 4 2 5 2 9V9.5C3.38 9.5 4.5 10.62 4.5 12C4.5 13.38 3.38 14.5 2 14.5V15C2 19 3 20 7 20H17C21 20 22 19 22 15C20.62 15 19.5 13.88 19.5 12.5Z" stroke="currentColor" stroke-width="1.5" stroke-linecap="round" stroke-linejoin="round"/>
    <path d="M10 4L10 20" stroke="currentColor" stroke-width="1.5" stroke-linecap="round" stroke-linejoin="round" stroke-dasharray="5 5"/>
  </symbol>

  <!-- TikTok -->
  <symbol id="tiktok" viewBox="0 0 32 32" fill="none">
    <title>tiktok</title>
    <path d="M16.656 1.029c1.637-0.025 3.262-0.012 4.886-0.025 0.054 2.031 0.878 3.859 2.189 5.213l-0.002-0.002c1.411 1.271 3.247 2.095 5.271 2.235l0.028 0.002v5.036c-1.912-0.048-3.71-0.489-5.331-1.247l0.082 0.034c-0.784-0.377-1.447-0.764-2.077-1.196l0.052 0.034c-0.012 3.649 0.012 7.298-0.025 10.934-0.103 1.853-0.719 3.543-1.707 4.954l0.020-0.031c-1.652 2.366-4.328 3.919-7.371 4.011l-0.014 0c-0.123 0.006-0.268 0.009-0.414 0.009-1.73 0-3.347-0.482-4.725-1.319l0.040 0.023c-2.508-1.509-4.238-4.091-4.558-7.094l-0.004-0.041c-0.025-0.625-0.037-1.25-0.012-1.862 0.49-4.779 4.494-8.476 9.361-8.476 0.547 0 1.083 0.047 1.604 0.136l-0.056-0.008c0.025 1.849-0.050 3.699-0.050 5.548-0.423-0.153-0.911-0.242-1.42-0.242-1.868 0-3.457 1.194-4.045 2.861l-0.009 0.030c-0.133 0.427-0.21 0.918-0.21 1.426 0 0.206 0.013 0.41 0.037 0.61l-0.002-0.024c0.332 2.046 2.086 3.59 4.201 3.59 0.061 0 0.121-0.001 0.181-0.004l-0.009 0c1.463-0.044 2.733-0.831 3.451-1.994l0.010-0.018c0.267-0.372 0.45-0.822 0.511-1.311l0.001-0.014c0.125-2.237 0.075-4.461 0.087-6.698 0.012-5.036-0.012-10.060 0.025-15.083z" stroke="currentColor" stroke-width="1.5" stroke-linecap="round" stroke-linejoin="round"/>
  </symbol>

  <!-- Usuario Perfil / Avatar -->
  <symbol id="user-avatar" viewBox="0 0 24 24" fill="none">
    <path d="M12.1601 10.87C12.0601 10.86 11.9401 10.86 11.8301 10.87C9.45006 10.79 7.56006 8.84 7.56006 6.44C7.56006 3.99 9.54006 2 12.0001 2C14.4501 2 16.4401 3.99 16.4401 6.44C16.4301 8.84 14.5401 10.79 12.1601 10.87Z" stroke="currentColor" stroke-width="1.5" stroke-linecap="round" stroke-linejoin="round"/>
    <path d="M7.15997 14.56C4.73997 16.18 4.73997 18.82 7.15997 20.43C9.90997 22.27 14.42 22.27 17.17 20.43C19.59 18.81 19.59 16.17 17.17 14.56C14.43 12.73 9.91997 12.73 7.15997 14.56Z" stroke="currentColor" stroke-width="1.5" stroke-linecap="round" stroke-linejoin="round"/>
  </symbol>

  <!-- Icono personalizado para total de canjes -->
  <symbol id="stats-total-custom" viewBox="0 0 32 32" fill="none">
    <path d="M17.3327 30.3337H6.66602C3.43935 30.3337 1.66602 28.5603 1.66602 25.3337V14.667C1.66602 11.4403 3.43935 9.66699 6.66602 9.66699H13.3327C13.8793 9.66699 14.3327 10.1203 14.3327 10.667V25.3337C14.3327 27.4403 15.226 28.3337 17.3327 28.3337C17.8793 28.3337 18.3327 28.787 18.3327 29.3337C18.3327 29.8803 17.8793 30.3337 17.3327 30.3337ZM6.66602 11.667C4.55935 11.667 3.66602 12.5603 3.66602 14.667V25.3337C3.66602 27.4403 4.55935 28.3337 6.66602 28.3337H13.066C12.586 27.547 12.3327 26.547 12.3327 25.3337V11.667H6.66602Z" fill="currentColor"/>
    <path d="M13.3327 11.6663H6.66602C6.11935 11.6663 5.66602 11.213 5.66602 10.6663V7.99967C5.66602 5.97301 7.30602 4.33301 9.33268 4.33301H13.4793C13.786 4.33301 14.0794 4.47965 14.266 4.71965C14.4527 4.97298 14.5193 5.29301 14.4393 5.58634C14.3593 5.87968 14.3327 6.21301 14.3327 6.66634V10.6663C14.3327 11.213 13.8793 11.6663 13.3327 11.6663ZM7.66602 9.66634H12.3327V6.66634C12.3327 6.54634 12.3327 6.43967 12.3327 6.33301H9.33268C8.41268 6.33301 7.66602 7.07967 7.66602 7.99967V9.66634Z" fill="currentColor"/>
    <path d="M18.666 18.3337C18.1193 18.3337 17.666 17.8803 17.666 17.3337V10.667C17.666 10.1203 18.1193 9.66699 18.666 9.66699C19.2127 9.66699 19.666 10.1203 19.666 10.667V17.3337C19.666 17.8803 19.2127 18.3337 18.666 18.3337Z" fill="currentColor"/>
    <path d="M24 18.3337C23.4533 18.3337 23 17.8803 23 17.3337V10.667C23 10.1203 23.4533 9.66699 24 9.66699C24.5467 9.66699 25 10.1203 25 10.667V17.3337C25 17.8803 24.5467 18.3337 24 18.3337Z" fill="currentColor"/>
    <path d="M23.9993 30.3337H18.666C18.1193 30.3337 17.666 29.8803 17.666 29.3337V24.0003C17.666 22.7203 18.7193 21.667 19.9993 21.667H22.666C23.946 21.667 24.9993 22.7203 24.9993 24.0003V29.3337C24.9993 29.8803 24.546 30.3337 23.9993 30.3337ZM19.666 28.3337H22.9993V24.0003C22.9993 23.8137 22.8527 23.667 22.666 23.667H19.9993C19.8127 23.667 19.666 23.8137 19.666 24.0003V28.3337Z" fill="currentColor"/>
    <path d="M8 23.6663C7.45333 23.6663 7 23.213 7 22.6663V17.333C7 16.7863 7.45333 16.333 8 16.333C8.54667 16.333 9 16.7863 9 17.333V22.6663C9 23.213 8.54667 23.6663 8 23.6663Z" fill="#currentColor"/>
    <path d="M25.334 30.3337H17.334C14.1073 30.3337 12.334 28.5603 12.334 25.3337V6.66699C12.334 3.44033 14.1073 1.66699 17.334 1.66699H25.334C28.5607 1.66699 30.334 3.44033 30.334 6.66699V25.3337C30.334 28.5603 28.5607 30.3337 25.334 30.3337ZM17.334 3.66699C15.2273 3.66699 14.334 4.56033 14.334 6.66699V25.3337C14.334 27.4403 15.2273 28.3337 17.334 28.3337H25.334C27.4407 28.3337 28.334 27.4403 28.334 25.3337V6.66699C28.334 4.56033 27.4407 3.66699 25.334 3.66699H17.334Z" fill="currentColor"/>
  </symbol>

  <!-- Ícono personalizado -->
  <symbol id="custom-icon" viewBox="0 0 24 24" fill="none">
    <path d="M10.9023 19.8701H17.3723C21.0723 19.8701 21.9923 18.9501 21.9923 15.2501C20.7123 15.2501 19.6823 14.2101 19.6823 12.9401C19.6823 11.6601 20.7123 10.6201 21.9923 10.6201V9.70008C21.9923 6.00008 21.0723 5.08008 17.3723 5.08008H10.9923V11.8701" stroke="currentColor" stroke-width="1.5" stroke-linecap="round" stroke-linejoin="round"/>
    <path d="M10.9936 16.87V19.87H8.22356C6.74356 19.87 5.87357 18.86 4.91357 16.54L4.73356 16.09C5.94356 15.61 6.53357 14.21 6.02357 13C5.53357 11.79 4.14357 11.21 2.92357 11.71L2.75357 11.28C1.31356 7.76 1.81357 6.53 5.33357 5.08L7.97357 4L10.9936 11.32V13.87" stroke="currentColor" stroke-width="1.5" stroke-linecap="round" stroke-linejoin="round"/>
    <path d="M8.16219 19.8701H7.99219" stroke="currentColor" stroke-width="1.5" stroke-linecap="round" stroke-linejoin="round"/>
  </symbol>

<!-- Documentos / Archivos -->
<symbol id="document-files" viewBox="0 0 16 16" fill="none">
  <path d="M11.334 14H4.66732C2.00065 14 1.33398 13.3333 1.33398 10.6667V5.33333C1.33398 2.66667 2.00065 2 4.66732 2H11.334C14.0007 2 14.6673 2.66667 14.6673 5.33333V10.6667C14.6673 13.3333 14.0007 14 11.334 14Z" stroke="currentColor" stroke-width="1.5" stroke-linecap="round" stroke-linejoin="round"/>
  <path d="M9.33398 5.33398H12.6673" stroke="currentColor" stroke-width="1.5" stroke-linecap="round" stroke-linejoin="round"/>
  <path d="M10 8H12.6667" stroke="currentColor" stroke-width="1.5" stroke-linecap="round" stroke-linejoin="round"/>
  <path d="M11.334 10.666H12.6673" stroke="currentColor" stroke-width="1.5" stroke-linecap="round" stroke-linejoin="round"/>
  <path d="M5.6676 7.52661C6.33403 7.52661 6.87427 6.98637 6.87427 6.31995C6.87427 5.65352 6.33403 5.11328 5.6676 5.11328C5.00118 5.11328 4.46094 5.65352 4.46094 6.31995C4.46094 6.98637 5.00118 7.52661 5.6676 7.52661Z" stroke="currentColor" stroke-width="1.5" stroke-linecap="round" stroke-linejoin="round"/>
  <path d="M8.00065 10.8872C7.90732 9.92049 7.14065 9.16049 6.17398 9.07383C5.84065 9.04049 5.50065 9.04049 5.16065 9.07383C4.19398 9.16716 3.42732 9.92049 3.33398 10.8872" stroke="currentColor" stroke-width="1.5" stroke-linecap="round" stroke-linejoin="round"/>
</symbol>

<!-- Capas / Niveles -->
<symbol id="layers" viewBox="0 0 16 16" fill="none">
  <path d="M8.00065 11.3333V12.92C8.00065 14.1667 7.50065 14.6667 6.24732 14.6667H3.08065C1.83398 14.6667 1.33398 14.1667 1.33398 12.92V9.75333C1.33398 8.5 1.83398 8 3.08065 8H4.66732V9.58C4.66732 10.8333 5.16732 11.3333 6.41398 11.3333H8.00065Z" stroke="currentColor" stroke-width="1.5" stroke-linecap="round" stroke-linejoin="round"/>
  <path d="M11.3327 7.99935V9.57935C11.3327 10.8327 10.8327 11.3327 9.57935 11.3327H6.41268C5.16602 11.3327 4.66602 10.8327 4.66602 9.57935V6.41268C4.66602 5.16602 5.16602 4.66602 6.41268 4.66602H7.99935V6.24602C7.99935 7.49935 8.49935 7.99935 9.74602 7.99935H11.3327Z" stroke="currentColor" stroke-width="1.5" stroke-linecap="round" stroke-linejoin="round"/>
  <path d="M14.6667 3.08065V6.24732C14.6667 7.50065 14.1667 8.00065 12.9133 8.00065H9.74667C8.5 8.00065 8 7.50065 8 6.24732V3.08065C8 1.83398 8.5 1.33398 9.74667 1.33398H12.9133C14.1667 1.33398 14.6667 1.83398 14.6667 3.08065Z" stroke="currentColor" stroke-width="1.5" stroke-linecap="round" stroke-linejoin="round"/>
</symbol>

<!-- Teléfono -->
<symbol id="phone" viewBox="0 0 16 16" fill="none">
  <path d="M14.6473 12.2207C14.6473 12.4607 14.594 12.7073 14.4806 12.9473C14.3673 13.1873 14.2207 13.414 14.0273 13.6273C13.7007 13.9873 13.3407 14.2473 12.934 14.414C12.534 14.5807 12.1007 14.6673 11.634 14.6673C10.954 14.6673 10.2273 14.5073 9.46065 14.1807C8.69398 13.854 7.92732 13.414 7.16732 12.8607C6.40065 12.3007 5.67398 11.6807 4.98065 10.994C4.29398 10.3007 3.67398 9.57398 3.12065 8.81398C2.57398 8.05398 2.13398 7.29398 1.81398 6.54065C1.49398 5.78065 1.33398 5.05398 1.33398 4.36065C1.33398 3.90732 1.41398 3.47398 1.57398 3.07398C1.73398 2.66732 1.98732 2.29398 2.34065 1.96065C2.76732 1.54065 3.23398 1.33398 3.72732 1.33398C3.91398 1.33398 4.10065 1.37398 4.26732 1.45398C4.44065 1.53398 4.59398 1.65398 4.71398 1.82732L6.26065 4.00732C6.38065 4.17398 6.46732 4.32732 6.52732 4.47398C6.58732 4.61398 6.62065 4.75398 6.62065 4.88065C6.62065 5.04065 6.57398 5.20065 6.48065 5.35398C6.39398 5.50732 6.26732 5.66732 6.10732 5.82732L5.60065 6.35398C5.52732 6.42732 5.49398 6.51398 5.49398 6.62065C5.49398 6.67398 5.50065 6.72065 5.51398 6.77398C5.53398 6.82732 5.55398 6.86732 5.56732 6.90732C5.68732 7.12732 5.89398 7.41398 6.18732 7.76065C6.48732 8.10732 6.80732 8.46065 7.15398 8.81398C7.51398 9.16732 7.86065 9.49398 8.21398 9.79398C8.56065 10.0873 8.84732 10.2873 9.07398 10.4073C9.10732 10.4207 9.14732 10.4407 9.19398 10.4607C9.24732 10.4807 9.30065 10.4873 9.36065 10.4873C9.47398 10.4873 9.56065 10.4473 9.63398 10.374L10.1407 9.87398C10.3073 9.70732 10.4673 9.58065 10.6207 9.50065C10.774 9.40732 10.9273 9.36065 11.094 9.36065C11.2207 9.36065 11.354 9.38732 11.5007 9.44732C11.6473 9.50732 11.8007 9.59398 11.9673 9.70732L14.174 11.274C14.3473 11.394 14.4673 11.534 14.5406 11.7006C14.6073 11.8673 14.6473 12.034 14.6473 12.2207Z" stroke="currentColor" stroke-width="1.5" stroke-miterlimit="10"/>
</symbol>

<!-- Mapa / Ubicación Global -->
<symbol id="map-global" viewBox="0 0 16 16" fill="none">
  <path d="M8.00065 14.6673C11.6825 14.6673 14.6673 11.6825 14.6673 8.00065C14.6673 4.31875 11.6825 1.33398 8.00065 1.33398C4.31875 1.33398 1.33398 4.31875 1.33398 8.00065C1.33398 11.6825 4.31875 14.6673 8.00065 14.6673Z" stroke="currentColor" stroke-width="1.5" stroke-linecap="round" stroke-linejoin="round"/>
  <path d="M5.33372 2H6.00039C4.70039 5.89333 4.70039 10.1067 6.00039 14H5.33372" stroke="currentColor" stroke-width="1.5" stroke-linecap="round" stroke-linejoin="round"/>
  <path d="M10 2C11.3 5.89333 11.3 10.1067 10 14" stroke="currentColor" stroke-width="1.5" stroke-linecap="round" stroke-linejoin="round"/>
  <path d="M2 10.6667V10C5.89333 11.3 10.1067 11.3 14 10V10.6667" stroke="currentColor" stroke-width="1.5" stroke-linecap="round" stroke-linejoin="round"/>
  <path d="M2 6.00039C5.89333 4.70039 10.1067 4.70039 14 6.00039" stroke="currentColor" stroke-width="1.5" stroke-linecap="round" stroke-linejoin="round"/>
</symbol>

<!-- Ubicación / Pin -->
<symbol id="location-pin" viewBox="0 0 16 16" fill="none">
  <path d="M7.99992 8.95297C9.14867 8.95297 10.0799 8.02172 10.0799 6.87297C10.0799 5.72422 9.14867 4.79297 7.99992 4.79297C6.85117 4.79297 5.91992 5.72422 5.91992 6.87297C5.91992 8.02172 6.85117 8.95297 7.99992 8.95297Z" stroke="currentColor" stroke-width="1.5"/>
  <path d="M2.41379 5.66065C3.72712 -0.112681 12.2805 -0.106014 13.5871 5.66732C14.3538 9.05399 12.2471 11.9207 10.4005 13.694C9.06046 14.9873 6.94046 14.9873 5.59379 13.694C3.75379 11.9207 1.64712 9.04732 2.41379 5.66065Z" stroke="currentColor" stroke-width="1.5"/>
</symbol>

<!-- Perfil Usuario / ID Card -->
<symbol id="user-id-card" viewBox="0 0 16 16" fill="none">
  <path d="M11.334 14H4.66732C2.00065 14 1.33398 13.3333 1.33398 10.6667V5.33333C1.33398 2.66667 2.00065 2 4.66732 2H11.334C14.0007 2 14.6673 2.66667 14.6673 5.33333V10.6667C14.6673 13.3333 14.0007 14 11.334 14Z" stroke="currentColor" stroke-width="1.5" stroke-linecap="round" stroke-linejoin="round"/>
  <path d="M9.33398 5.33398H12.6673" stroke="currentColor" stroke-width="1.5" stroke-linecap="round" stroke-linejoin="round"/>
  <path d="M10 8H12.6667" stroke="currentColor" stroke-width="1.5" stroke-linecap="round" stroke-linejoin="round"/>
  <path d="M11.334 10.666H12.6673" stroke="currentColor" stroke-width="1.5" stroke-linecap="round" stroke-linejoin="round"/>
  <path d="M5.6676 7.52661C6.33403 7.52661 6.87427 6.98637 6.87427 6.31995C6.87427 5.65352 6.33403 5.11328 5.6676 5.11328C5.00118 5.11328 4.46094 5.65352 4.46094 6.31995C4.46094 6.98637 5.00118 7.52661 5.6676 7.52661Z" stroke="currentColor" stroke-width="1.5" stroke-linecap="round" stroke-linejoin="round"/>
  <path d="M8.00065 10.8872C7.90732 9.92049 7.14065 9.16049 6.17398 9.07383C5.84065 9.04049 5.50065 9.04049 5.16065 9.07383C4.19398 9.16716 3.42732 9.92049 3.33398 10.8872" stroke="currentColor" stroke-width="1.5" stroke-linecap="round" stroke-linejoin="round"/>
</symbol>

<!-- Ícono personalizado para música/audio -->
<symbol id="music-audio" viewBox="0 0 16 16" fill="none">
  <path d="M8.3325 14.6675H2.71917C1.94583 14.6675 1.3125 14.0475 1.3125 13.2875V3.39422C1.3125 1.64755 2.6125 0.854217 4.20583 1.63422L7.16583 3.08755C7.80583 3.40088 8.3325 4.23422 8.3325 4.94088V14.6675Z" stroke="currentColor" stroke-width="1.5" stroke-linecap="round" stroke-linejoin="round"/>
  <path d="M14.6473 10.0406V12.5606C14.6473 14.0006 13.9807 14.6673 12.5407 14.6673H8.33398V6.94727L8.64732 7.01393L11.6473 7.68727L13.0007 7.98727C13.8807 8.1806 14.6007 8.63393 14.6407 9.91393C14.6473 9.95393 14.6473 9.99393 14.6473 10.0406Z" stroke="currentColor" stroke-width="1.5" stroke-linecap="round" stroke-linejoin="round"/>
  <path d="M3.66602 6H5.97935" stroke="currentColor" stroke-width="1.5" stroke-linecap="round" stroke-linejoin="round"/>
  <path d="M3.66602 8.66602H5.97935" stroke="currentColor" stroke-width="1.5" stroke-linecap="round" stroke-linejoin="round"/>
  <path d="M11.6465 7.687V9.83367C11.6465 10.6603 10.9732 11.3337 10.1465 11.3337C9.31982 11.3337 8.64648 10.6603 8.64648 9.83367V7.01367L11.6465 7.687Z" stroke="currentColor" stroke-width="1.5" stroke-linecap="round" stroke-linejoin="round"/>
  <path d="M14.6398 9.91417C14.5998 10.7008 13.9465 11.3342 13.1465 11.3342C12.3198 11.3342 11.6465 10.6608 11.6465 9.83417V7.6875L12.9998 7.9875C13.8798 8.18083 14.5998 8.63417 14.6398 9.91417Z" stroke="currentColor" stroke-width="1.5" stroke-linecap="round" stroke-linejoin="round"/>
</symbol>

  <!-- Banderas dinámicas -->
  <symbol id="flag-generic" viewBox="0 0 24 16" fill="none">
    <rect width="24" height="16" rx="2" fill="#CBD5F5" />
    <path d="M2 4H22" stroke="#94A3B8" stroke-width="1.2" />
    <path d="M2 12H22" stroke="#94A3B8" stroke-width="1.2" />
  </symbol>

  <symbol id="flag-sv" viewBox="0 0 24 16" fill="none">
    <rect width="24" height="16" rx="1.5" fill="#0F62C9" />
    <rect y="5.333" width="24" height="5.334" fill="#FFFFFF" />
    <circle cx="12" cy="8" r="1.2" fill="#F7C948" />
  </symbol>

  <symbol id="flag-cr" viewBox="0 0 24 16" fill="none">
    <rect width="24" height="16" rx="1.5" fill="#002B7F" />
    <rect y="3" width="24" height="2.5" fill="#FFFFFF" />
    <rect y="5.5" width="24" height="5" fill="#CE1126" />
    <rect y="10.5" width="24" height="2.5" fill="#FFFFFF" />
  </symbol>

  <symbol id="flag-us" viewBox="0 0 24 16" fill="none">
    <rect width="24" height="16" rx="1.5" fill="#B22234" />
    <rect y="2" width="24" height="1.5" fill="#FFFFFF" />
    <rect y="5" width="24" height="1.5" fill="#FFFFFF" />
    <rect y="8" width="24" height="1.5" fill="#FFFFFF" />
    <rect y="11" width="24" height="1.5" fill="#FFFFFF" />
    <rect width="10.5" height="7.5" fill="#3C3B6E" />
    <circle cx="2.8" cy="1.8" r="0.5" fill="#FFFFFF" />
    <circle cx="4.8" cy="3.1" r="0.5" fill="#FFFFFF" />
    <circle cx="6.8" cy="1.8" r="0.5" fill="#FFFFFF" />
    <circle cx="2.8" cy="4.4" r="0.5" fill="#FFFFFF" />
    <circle cx="4.8" cy="5.7" r="0.5" fill="#FFFFFF" />
  </symbol>

  <symbol id="flag-gt" viewBox="0 0 24 16" fill="none">
    <rect width="24" height="16" rx="1.5" fill="#5CAFE4" />
    <rect x="8" width="8" height="16" fill="#FFFFFF" />
    <circle cx="12" cy="8" r="1.4" fill="#8FD19E" />
    <path d="M12 6.2L12.9 9.5H11.1L12 6.2Z" fill="#008751" />
  </symbol>

  <symbol id="flag-hn" viewBox="0 0 24 16" fill="none">
    <rect width="24" height="16" rx="1.5" fill="#0073CF" />
    <rect y="5" width="24" height="6" fill="#FFFFFF" />
    <circle cx="10" cy="6.8" r="0.55" fill="#0073CF" />
    <circle cx="14" cy="6.8" r="0.55" fill="#0073CF" />
    <circle cx="12" cy="8" r="0.6" fill="#0073CF" />
    <circle cx="10" cy="9.2" r="0.55" fill="#0073CF" />
    <circle cx="14" cy="9.2" r="0.55" fill="#0073CF" />
  </symbol>

  <symbol id="flag-ni" viewBox="0 0 24 16" fill="none">
    <rect width="24" height="16" rx="1.5" fill="#115BCB" />
    <rect y="5" width="24" height="6" fill="#FFFFFF" />
    <path d="M12 6.5L13.2 9.5H10.8L12 6.5Z" fill="#F4C542" />
    <path d="M12 7.5L12.6 9H11.4L12 7.5Z" fill="#198754" />
  </symbol>

  <symbol id="flag-pa" viewBox="0 0 24 16" fill="none">
    <rect width="12" height="8" fill="#FFFFFF" />
    <rect x="12" width="12" height="8" fill="#CE1126" />
    <rect y="8" width="12" height="8" fill="#0052B4" />
    <rect x="12" y="8" width="12" height="8" fill="#FFFFFF" />
    <path d="M4 2.5L4.6 4.3H2.9L4.4 5.4L3.8 7.2L5.3 6.1L6.8 7.2L6.2 5.4L7.7 4.3H6L6.6 2.5L5.3 3.6L4 2.5Z" fill="#0052B4" />
    <path d="M17.5 10.5L18.1 12.3H16.4L17.9 13.4L17.3 15.2L18.8 14.1L20.3 15.2L19.7 13.4L21.2 12.3H19.5L20.1 10.5L18.8 11.6L17.5 10.5Z" fill="#CE1126" />
  </symbol>


</svg>
